<svg width="974" height="779" viewBox="0 0 974 779" fill="none" xmlns="http://www.w3.org/2000/svg">
<g clip-path="url(#clip0_972_18472)">
<path d="M918.341 410.509C913.908 401.611 909.056 396.203 900.705 390.589C888.286 380.736 865.026 375.753 851.65 374.029C849.097 373.7 846.681 375.225 845.759 377.637L845.243 378.985C844.871 379.96 845.143 380.925 845.852 381.677C858.954 394.419 859.385 412.993 865.529 428.813C870.317 440.955 876.882 452.365 886.82 461.469C900.068 473.581 916.064 482.799 930.206 494.114C944.648 505.661 957.689 518.396 968.695 533.029C969.413 534.018 971.005 533.109 970.259 532.018C961.005 517.457 949.735 504.03 936.719 492.201C923.335 480.015 907.358 470.504 894.197 458.206C881.385 446.402 873.533 431.891 869.438 415.471C866.433 403.358 880.094 386.238 891.115 392.097C895.269 394.305 899.132 397.03 902.66 400.483C912.669 410.303 916.309 423.446 925.159 434.031C933.883 444.325 943.599 453.853 948.938 466.218C949.465 467.401 951.276 466.871 950.864 465.604C948.893 458.611 945.426 452.422 941.047 446.399L940.912 446.212C932.359 434.336 924.603 423.568 918.341 410.509Z" fill="#E5732E"/>
<path d="M499.573 742.297C499.342 742.23 499.223 741.975 499.323 741.764C513.509 711.75 515.347 680.416 509.718 648.4C506.855 632.203 502.9 615.55 495.546 600.607C491.832 593.019 487.318 585.908 483.177 578.693C481.522 575.854 480.062 572.977 478.68 570.083C473.824 559.913 472.513 548.477 474.066 537.489C477.583 512.594 478.491 487.509 476.434 462.745C473.911 432.375 467.626 402.547 459.968 373.103C456.168 358.294 452.126 343.554 448.115 328.926L447.934 328.265C444.391 315.555 440.241 302.635 438.445 289.438C435.58 268.221 438.318 247.314 443.398 226.74C444.428 222.565 450.103 221.459 453.048 224.735V224.735C462.502 234.653 473.786 243.045 485.69 250.376C488.38 252.063 491.082 253.728 493.79 255.38C506.462 263.113 513.058 279.021 515.723 293.361V293.361C517.445 302.393 520.539 311.042 524.382 319.482C532.103 336.479 543.173 352.034 553.12 367.902C553.696 368.883 555.837 368.792 555.028 367.496C546.53 352.365 537.783 337.303 531.421 321.195C528.259 313.2 525.471 305.099 524.055 296.616C523.285 292.392 523.014 288.028 523.028 283.712V283.712C523.105 279.127 528.647 276.811 532.504 279.48C539.248 284.144 545.833 289.118 552.047 294.637C592.859 330.427 620.918 378.403 637.723 428.124C647.196 456.428 654.105 486.081 656.571 515.833C656.689 517.957 661.338 519.83 661.289 517.053C659.998 464.904 647.185 414.068 622.149 367.532C614.927 354.193 606.901 341.515 597.963 329.526C594.672 325.111 597.964 318.308 603.456 318.718V318.718C614.436 319.585 625.168 324.453 634.492 329.588C654.302 340.546 670.479 356.832 682.508 375.036C683.821 377.079 688.264 376.981 686.573 374.155C674.878 354.843 659.497 337.194 639.964 324.509C630.314 318.324 619.417 312.487 607.981 309.718C602.121 308.31 595.926 308.01 589.857 307.674C587.108 307.554 584.359 307.433 581.751 306.893V306.893C579.735 306.561 577.966 305.423 576.566 303.934C558.013 284.203 536.584 266.934 512.488 252.408L512.26 252.272C499.339 244.528 486.268 236.695 474.565 227.227C468.599 222.423 463.147 217.096 458.585 211.14V211.14C453.377 204.237 453.035 195.117 455.7 187.099C458.165 179.682 460.678 172.318 463.088 164.983C470.869 140.844 478.709 113.6 479.651 87.0472C479.822 82.243 479.527 77.3576 479.252 72.5474C479.24 72.3398 479.228 72.1332 479.216 71.9286C479.024 68.5333 479.462 65.1913 480.051 61.8593C480.496 59.3421 480.736 56.7632 480.551 54.0745C480.049 46.3509 477.531 38.6826 475.621 31.2253C473.876 24.7365 469.604 19.7141 462.21 18.6071C456.333 17.5839 448.047 20.1505 445.433 25.6999C441.001 35.4349 449.828 48.5718 453.281 57.5012C458.324 70.6793 457.099 86.3685 454.971 100.027C450.003 131.6 435.98 161.516 426.653 192.149C416.358 225.337 408.385 259.018 415.799 293.35C420.311 314.413 428.564 334.432 436.32 354.591C444.272 374.948 450.904 395.419 455.239 416.786V416.786C455.629 418.043 456.334 419.234 456.598 420.52C457.521 425.02 458.428 429.511 459.213 433.941C460.786 443.154 461.959 452.384 462.732 461.631C462.913 463.798 460.401 465.208 459 466.851V466.851C452.217 473.817 447.942 482.748 443.646 491.176C442.902 492.678 442.177 494.183 441.469 495.694C437.51 504.138 430.799 511.409 421.917 514.618V514.618C416.911 516.396 411.977 518.407 407.188 520.886C397.237 525.947 388.292 532.502 380.334 540.051C365.447 554.099 354.835 570.125 347.573 588.641C346.797 590.506 337.955 617.572 351.563 590.571C360.117 573.597 372.48 557.97 387.033 545.03C395.1 537.831 403.707 531.497 413.445 526.622C418.516 524.085 423.884 522.078 429.138 520.113L429.421 520.007V520.007C430.301 519.761 431.179 520.553 430.869 521.399C424.491 538.822 419.984 556.696 414.018 574.28C413.226 576.53 417.682 579.091 418.937 576.585C427.222 559.179 434.363 541.584 441.432 523.757C444.834 515.07 448.558 506.548 452.853 498.119V498.119C455.572 492.719 463.827 495.061 463.629 501.138C462.516 535.339 456.534 569.43 446.959 602.628C439.008 629.834 428.251 656.301 414.668 681.527C400.414 708.083 383.838 734.145 363.247 756.888C362.857 757.378 363.895 758.103 364.322 757.73C383.268 737.982 401.819 717.837 416.573 695.074C417.494 693.676 418.253 692.197 419.174 690.799C419.175 690.798 419.176 690.798 419.176 690.799V690.799V690.799C419.468 691.736 419.581 692.714 419.782 693.671C420.462 696.906 421.224 700.118 421.986 703.33C423.916 711.289 425.972 719.213 425.798 727.379C425.818 727.881 426.784 728.372 426.977 727.684C428.117 720.009 427.901 712.333 426.49 704.736C425.828 700.862 425.078 697.139 424.417 693.265V693.265C423.372 687.334 424.998 681.3 427.926 676.113C436.927 660.17 444.758 643.716 451.343 626.771C454.751 617.869 457.889 608.83 460.722 599.693C463.698 590.093 479.073 588.128 484.018 597.103V597.103C492.121 611.837 496.626 628.083 499.9 644.291C506.372 675.589 506.396 709.701 494.783 739.958C493.951 742.23 498.18 744.791 499.777 742.813C499.926 742.629 499.807 742.364 499.573 742.297V742.297Z" fill="#E5732E"/>
<path d="M466.445 92.6591C465.398 90.1068 461.618 90.0976 460.938 92.8461V92.8461C460.767 93.4618 460.526 94.0477 460.135 94.5545C454.869 101.386 451.707 109.788 446.015 116.587C438.986 125.086 430.151 132.106 420.754 138.027C402.123 149.743 380.498 156.062 358.916 160.457C347.915 162.622 336.747 163.998 325.491 164.643C322.921 164.79 320.345 164.705 317.791 164.4C314.578 164.016 311.326 163.565 308.139 162.941C299.821 161.263 291.65 159.815 283.369 158.363C266.14 155.55 249.223 151.481 231.903 148.933C205.041 144.954 182.534 154.671 161.536 169.825C160.916 170.292 161.47 171.241 162.292 170.843C173.699 164.05 185.664 158.147 198.894 155.163C213.922 151.792 228.716 154.1 243.571 156.813C259.625 159.801 267.516 163.864 283.707 166.305V166.305C285.971 166.64 286.119 169.575 284.002 170.457C282.795 170.96 281.637 171.511 280.584 172.117C267.761 178.488 261.984 186.079 253.938 195.968C251.29 199.223 248.104 202.054 245.564 205.394C242.789 209.042 240.237 213.312 236.744 215.293C228.572 219.937 219.376 221.538 209.9 221.394C187.495 221.141 165.02 214.644 143.064 210.856C125.564 207.793 109.828 209.462 93.4503 216.091C77.1077 222.647 62.3894 232.54 45.9634 239.197C45.5934 239.361 45.7235 239.949 46.1707 239.818C62.9925 234.805 78.4532 226.555 94.9244 220.617C104.039 217.386 113.341 215.178 122.952 214.82C134.382 214.269 146.102 217.314 157.171 219.451C177.818 223.575 202.198 229.319 223.515 225.855C226.532 225.365 229.061 229.412 227.136 231.792V231.792C220.357 240.003 214.142 248.611 206.836 256.307C190.184 273.884 166.552 276.625 142.88 277.543C123.761 278.115 101.716 276.235 83.9976 284.256C76.9321 287.468 70.7029 291.999 66.1458 298.168C59.6072 307.3 52.2452 314.502 44.123 322.463C39.9977 326.47 36.5387 330.715 34.0982 335.748C33.6149 336.654 34.909 337.275 35.4675 336.448C41.1813 327.774 49.8104 321.775 57.7948 315.078C65.9147 308.177 70.4527 298.708 79.3424 292.526C82.9011 290.056 86.8607 288.235 91.0794 286.894C100.229 283.986 108.109 298.09 104.193 306.857V306.857C98.8647 318.742 90.9631 328.727 79.688 336.063C68.0826 343.728 54.7326 348.946 42.9747 356.501C31.5425 363.83 21.2096 372.579 12.2431 382.43C11.5315 383.162 12.6088 384.043 13.2854 383.385C23.5835 373.694 35.1578 365.684 47.6274 358.742C59.8385 351.938 73.1625 346.942 84.8082 339.428C93.5471 333.778 100.055 325.973 105.323 317.4C112.115 306.218 114.972 292.259 126.594 284.251V284.251C127.251 283.756 127.963 283.23 128.784 283.236C133.803 283.273 138.646 283.325 143.152 283.198C163.389 282.644 182.906 285.359 199.584 273.308C214.65 262.369 224.891 250.197 238.431 227.757C234.35 235.2 231.492 243.083 230.924 251.54C229.282 274.897 230.839 296.552 212.133 314.236C203.769 322.336 195.291 329.147 188.226 338.406C180.948 347.851 175.609 358.287 170.689 368.861C170.368 369.654 171.429 370.221 171.904 369.479C183.188 349.811 196.828 334.004 214.691 319.524C228.263 308.523 234.678 292.264 235.985 275.745C236.8 264.358 235.806 252.924 238.658 241.771C241.808 229.302 251.97 218.142 260.025 208.237C262.977 204.591 265.87 200.875 268.875 197.24C270.929 194.755 273.273 192.525 275.827 190.557C284.841 183.608 294.175 177.355 306.733 175.842C319.059 174.343 331.524 176.613 343.884 175.384C354.061 174.363 364.142 172.695 374.088 170.53V170.53C380.041 169.209 385.61 176.614 382.615 181.929C382.049 182.932 381.488 183.937 380.93 184.941C376.767 192.456 372.596 198.104 365.371 203.056C359.439 206.958 353.407 210.632 347.634 214.839C336.818 222.806 325.985 232.818 319.214 244.225C318.791 244.849 319.727 245.381 320.112 244.904C329.755 235.41 339.085 226.544 350.374 218.91C360.326 212.251 372.101 207.026 379.963 197.875C387.946 188.505 391.986 176.223 399.673 166.452V166.452C402.726 162.489 406.958 159.654 411.464 157.483C417.523 154.563 423.454 151.308 429.344 147.705C439.694 141.234 454.206 132.907 461.194 121.779C463.431 118.216 465.376 114.399 466.698 110.408C468.612 104.628 468.516 98.1059 466.445 92.6591Z" fill="#E5732E"/>
<path d="M462.452 71.9212C464.341 68.9332 469.084 69.6895 469.315 73.2745V73.2745C469.391 74.0815 469.56 74.8652 469.936 75.5805C474.995 85.2167 477.06 96.3966 482.661 106.079C489.554 118.165 499.045 128.763 509.491 138.098C530.207 156.575 555.896 168.893 581.967 178.789C595.596 183.859 609.632 187.927 623.955 191.053C626.469 191.601 629.029 191.928 631.605 192.043C636.058 192.243 640.595 192.366 645.083 192.219C655.894 191.805 666.468 191.65 677.182 191.511C699.423 191.483 721.559 189.817 743.855 190.14C778.441 190.608 804.47 207.365 827.374 230.636C828.047 231.347 827.137 232.425 826.196 231.758C813.427 220.922 799.758 211.088 783.842 204.659C765.758 197.379 746.683 197.267 727.441 197.652C706.632 198.137 695.817 201.63 674.962 201.402V201.402C672.043 201.362 671.193 205.01 673.651 206.548C675.052 207.423 676.38 208.35 677.563 209.324C692.717 220.291 698.108 231.362 706.42 246.138C708.459 249.763 711.129 253.03 713.151 256.666C716.182 262.117 718.455 268.865 722.777 272.377C731.975 279.861 743.145 283.736 755.062 285.481C783.215 289.715 812.87 286.133 841.261 285.844C863.9 285.557 883.256 290.847 902.296 302.488C921.308 314.029 937.528 329.427 956.622 341.112C957.048 341.392 956.752 342.103 956.221 341.848C936.259 332.144 918.736 318.657 899.423 307.864C888.724 301.961 877.557 297.302 865.586 294.901C851.376 291.888 835.99 293.325 821.626 293.756C789.912 294.912 751.141 297.847 723.445 282.402L723.769 282.916C726.295 286.92 728.814 290.913 731.095 295.019C737.739 306.693 743.586 318.751 751.008 329.887C767.916 355.312 796.931 363.55 826.41 369.511L847.569 373.373C851.912 374.166 851.652 380.447 847.253 380.992L846.08 381.137C845.6 381.196 845.085 381.002 844.844 380.589V380.589C844.556 380.095 844.123 379.718 843.554 379.63C836.984 378.614 830.637 377.664 824.791 376.548C799.538 371.741 774.448 371.18 756.259 352.679C739.838 335.9 729.749 318.556 717.843 287.664C721.278 297.827 723.078 308.293 721.878 319.014C718.655 348.639 711.806 375.479 731.264 401.457C739.923 413.314 749.014 423.578 755.78 436.624C762.77 449.947 767.106 464.119 770.885 478.379C771.108 479.438 769.65 479.934 769.221 478.907C759.518 451.95 745.988 429.356 726.862 407.569C712.329 391.015 707.961 369.322 710.058 348.342C711.611 333.895 715.443 319.758 714.389 305.192C713.258 288.915 703.038 272.856 695.176 258.798C692.089 253.246 689.103 247.608 685.915 242.073C684.319 239.303 682.403 236.735 680.244 234.378C670.247 223.467 659.802 213.267 643.928 208.683C628.81 204.3 612.665 204.614 597.442 200.562C584.911 197.214 572.646 193.075 560.662 188.338V188.338C553.494 185.472 544.831 193.611 547.384 200.879C547.869 202.259 548.347 203.64 548.824 205.021C552.345 215.291 556.298 223.221 564.239 230.899C570.796 236.998 577.529 242.83 583.817 249.279C595.58 261.468 606.901 276.224 612.812 291.904C613.201 292.773 611.907 293.25 611.532 292.574C601.587 278.708 591.891 265.695 579.46 253.828C568.486 243.455 554.901 234.511 547.111 221.438C539.218 208.065 536.93 191.842 529.5 178.027V178.027C526.568 172.437 521.899 168.021 516.737 164.38C509.801 159.488 503.1 154.203 496.53 148.489C484.614 137.916 467.56 123.947 461.838 107.897C460.437 103.968 459.224 99.9265 458.411 95.8292C456.801 87.7184 458.337 78.8096 462.452 71.9212Z" fill="#E5732E"/>
</g>
<defs>
<clipPath id="clip0_972_18472">
<rect width="974" height="779" fill="white"/>
</clipPath>
</defs>
</svg>
