<svg width="350" height="725" viewBox="0 0 350 725" fill="none" xmlns="http://www.w3.org/2000/svg">
<path d="M168.343 72.8221C167.955 70.3197 166.555 70.3107 166.303 73.0055C166.239 73.6103 166.149 74.1876 166.002 74.6928C164.053 81.3882 162.882 89.6209 160.774 96.2825C158.171 104.616 154.898 111.498 151.417 117.304C144.515 128.791 136.504 134.987 128.51 139.296C124.497 141.386 120.424 142.726 116.319 143.37C115.24 143.54 114.156 143.446 113.084 143.101C111.956 142.737 110.817 142.31 109.699 141.731C106.618 140.086 103.591 138.666 100.524 137.242C94.1414 134.484 87.8744 130.495 81.4586 127.997C71.5078 124.096 63.17 133.622 55.3917 148.481C55.1619 148.938 55.3672 149.869 55.6717 149.478C59.8974 142.818 64.3295 137.03 69.2304 134.105C74.7975 130.8 80.278 133.063 85.7806 135.723C91.7279 138.652 94.6512 142.636 100.649 145.03C101.521 145.372 101.585 148.192 100.776 149.081C100.322 149.579 99.887 150.125 99.492 150.727C94.7708 156.936 92.6282 164.325 89.6762 173.934C88.6595 177.244 87.4293 180.157 86.4611 183.557C85.4555 187.088 84.5213 191.154 83.2518 193.061C80.2245 197.614 76.8181 199.183 73.3076 199.042C65.008 198.794 56.6822 192.424 48.5488 188.71C42.066 185.707 36.2366 187.343 30.1697 193.843C24.1157 200.27 18.6634 209.971 12.5785 216.498C12.4415 216.658 12.4897 217.234 12.6553 217.106C18.8868 212.191 24.6142 204.102 30.7158 198.28C34.0921 195.112 37.5382 192.948 41.0983 192.597C45.3327 192.057 49.6742 195.042 53.7746 197.137C61.3828 201.159 70.3597 206.753 78.227 203.468C79.3937 202.981 80.4122 206.882 79.6927 209.237C77.1814 217.287 74.8792 225.727 72.1726 233.273C66.0038 250.507 57.2498 253.194 48.4807 254.094C41.3981 254.655 33.2317 252.811 26.668 260.676C24.0507 263.825 21.7431 268.268 20.055 274.317C17.6328 283.27 14.9056 290.331 11.8968 298.136C10.3686 302.065 9.08724 306.227 8.1832 311.162C8.00414 312.05 8.48355 312.66 8.69044 311.848C10.8071 303.344 14.0036 297.462 16.9614 290.896C19.9694 284.13 21.6504 274.845 24.9435 268.784C26.152 266.565 27.4853 264.879 28.9029 263.601C32.4658 260.389 35.6255 274.089 34.1492 282.835C32.1754 294.488 29.2483 304.278 25.0716 311.471C20.7724 318.986 15.827 324.103 11.4714 331.509C7.23643 338.695 3.4087 347.273 0.0871092 356.932C-0.176474 357.649 0.222604 358.514 0.47325 357.868C4.28809 348.366 8.5757 340.513 13.195 333.706C17.7185 327.036 22.6542 322.138 26.9683 314.77C30.2055 309.23 32.6164 301.578 34.5679 293.173C37.0838 282.209 38.1423 268.522 42.4474 260.671C42.6931 260.181 42.9624 259.67 43.2762 259.676C45.1291 259.713 46.9172 259.763 48.5812 259.639C56.0778 259.095 63.3077 261.757 69.4859 249.942C75.0672 239.216 78.8608 227.282 83.8765 205.28C82.3647 212.578 81.3063 220.307 81.0959 228.599C80.4876 251.5 81.0642 272.731 74.135 290.07C71.0362 298.012 67.8956 304.69 65.2787 313.768C62.5827 323.028 60.6048 333.261 58.7821 343.628C58.6634 344.405 59.0562 344.961 59.2325 344.234C63.4125 324.95 68.4652 309.452 75.0822 295.255C80.1102 284.468 82.4864 268.527 82.9705 252.332C83.2726 241.167 82.9043 229.956 83.9609 219.021C85.1278 206.795 88.8921 195.854 91.8762 186.143C92.956 182.611 94.0148 179.015 95.113 175.493C95.9003 172.968 96.8053 170.69 97.7974 168.669C101.116 161.912 104.558 155.853 109.179 154.38C113.745 152.91 118.362 155.136 122.941 153.931C126.711 152.93 130.445 151.295 134.13 149.171C136.355 147.865 138.494 154.709 137.414 159.76C137.162 160.939 136.912 162.12 136.664 163.301C135.122 170.669 133.577 176.207 130.9 181.062C128.703 184.888 126.469 188.49 124.33 192.615C120.323 200.426 116.31 210.243 113.802 221.427C113.645 222.039 113.992 222.56 114.135 222.093C117.707 212.784 121.163 204.092 125.345 196.607C129.032 190.077 133.394 184.955 136.306 175.983C139.264 166.796 140.76 154.753 143.607 145.173C144.736 141.297 146.329 138.484 148.034 136.305C150.258 133.461 152.436 130.294 154.599 126.792C158.439 120.439 163.824 112.26 166.408 101.327C167.231 97.8454 167.943 94.1366 168.43 90.2776C169.146 84.5971 169.112 78.1792 168.343 72.8221Z" fill={color}/>
<path d="M20.0544 274.316C21.7426 268.268 24.0501 263.825 26.6675 260.675C30.604 254.926 37.28 254.001 41.1207 254.31C41.9035 254.373 42.5437 255.833 42.6823 257.767L42.7556 258.79C42.8091 259.537 42.6837 260.199 42.4469 260.671C38.1418 268.522 37.0833 282.209 34.5673 293.172C32.6158 301.578 30.205 309.23 26.9678 314.77C22.6537 322.137 17.718 327.035 13.1944 333.706C8.57517 340.513 4.28756 348.366 0.472722 357.868C0.222075 358.513 -0.177002 357.649 0.0865811 356.932C3.40818 347.273 7.2359 338.695 11.4709 331.509C15.8265 324.102 20.7719 318.986 25.0711 311.471C29.2478 304.278 32.1749 294.488 34.1487 282.835C35.625 274.089 32.4653 260.388 28.9024 263.601C27.4848 264.879 26.1515 266.564 24.943 268.784C21.6499 274.845 19.9688 284.13 16.9609 290.896C14.0031 297.462 10.8065 303.343 8.68991 311.848C8.48302 312.659 8.00361 312.05 8.18267 311.162C9.08671 306.227 10.3681 302.065 11.8963 298.136L11.9432 298.014C14.9334 290.257 17.6449 283.223 20.0544 274.316Z" fill={color}/>
<path d="M180.615 709.768C180.528 709.701 180.484 709.458 180.521 709.25C185.777 679.821 186.458 649.097 184.373 617.705C183.312 601.825 181.847 585.497 179.123 570.846C177.747 563.406 176.075 556.434 174.541 549.36C173.908 546.487 173.352 543.575 172.826 540.645C171.061 530.822 170.585 519.808 171.157 509.129C172.467 484.665 172.807 460.013 172.043 435.677C171.109 405.9 168.78 376.656 165.943 347.786C164.536 333.267 163.038 318.814 161.552 304.472L161.485 303.824C160.173 291.363 158.636 278.695 157.97 265.756C156.91 244.97 157.922 224.487 159.8 204.332C160.174 200.32 162.315 199.181 163.38 202.317C166.882 212.041 171.062 220.269 175.472 227.457C176.427 229.043 177.386 230.608 178.347 232.161C183.16 239.941 185.604 255.457 186.597 269.603C187.235 278.458 188.381 286.938 189.805 295.213C192.665 311.878 196.766 327.129 200.451 342.687C200.664 343.649 201.457 343.56 201.158 342.289C198.01 327.454 194.769 312.686 192.413 296.893C191.241 289.053 190.208 281.111 189.684 272.794C189.399 268.652 189.298 264.374 189.304 260.142C189.331 255.749 191.435 253.466 192.849 256.057C195.335 260.612 197.762 265.467 200.053 270.853C215.172 305.945 225.566 352.983 231.791 401.733C235.3 429.483 237.86 458.557 238.773 487.728C238.817 489.81 240.539 491.647 240.521 488.924C240.043 437.794 235.296 387.951 226.022 342.324C223.317 329.102 220.308 316.541 216.953 304.672C215.773 300.497 217.064 294.062 219.097 294.464C223.165 295.314 227.141 300.087 230.594 305.121C237.933 315.866 243.926 331.833 248.382 349.682C248.868 351.685 250.514 351.588 249.887 348.818C245.555 329.883 239.857 312.579 232.621 300.142C229.047 294.077 225.01 288.355 220.774 285.64C218.603 284.259 216.308 283.965 214.06 283.636C213.041 283.518 212.023 283.4 211.057 282.87C210.308 282.544 209.662 281.449 209.157 280.027C202.279 260.657 194.334 243.705 185.399 229.45L185.314 229.316C180.528 221.724 175.686 214.044 171.351 204.76C169.141 200.051 167.121 194.827 165.431 188.988C163.491 182.183 163.378 173.252 164.38 165.273C165.287 158.05 166.212 150.877 167.099 143.733C169.985 120.033 172.894 93.2809 173.236 67.2131C173.297 62.5682 173.19 57.8618 173.089 53.2213C173.084 52.9736 173.079 52.7273 173.073 52.4838C173.003 49.1628 173.166 45.8772 173.385 42.5968C173.548 40.1372 173.636 37.6174 173.568 34.9907C173.382 27.4179 172.449 19.8995 171.742 12.5879C171.095 6.22583 169.513 1.30155 166.774 0.216209C164.597 -0.78698 161.527 1.72942 160.559 7.17042C158.917 16.7153 162.187 29.5955 163.466 38.3504C165.334 51.2711 164.88 66.6537 164.092 80.045C162.252 111.001 157.057 140.333 153.602 170.368C149.788 202.907 146.835 235.93 149.581 269.591C151.253 290.243 154.31 309.871 157.183 329.636C160.129 349.595 162.586 369.667 164.191 390.616C164.336 391.847 164.597 393.013 164.695 394.273C165.037 398.686 165.373 403.092 165.664 407.436C166.25 416.522 166.686 425.625 166.972 434.745C167.036 436.764 166.092 438.127 165.585 439.703C163.072 446.533 161.488 455.289 159.897 463.553C159.6 465.138 159.312 466.727 159.031 468.322C157.608 476.384 155.132 483.397 151.848 486.537C149.993 488.28 148.165 490.252 146.391 492.682C142.705 497.644 139.391 504.072 136.443 511.473C130.929 525.247 126.998 540.96 124.308 559.114C124.02 560.943 120.744 587.479 125.785 561.006C128.954 544.364 133.534 529.042 138.925 516.354C141.913 509.297 145.102 503.086 148.709 498.307C150.588 495.819 152.576 493.851 154.523 491.924L154.627 491.82C154.958 491.576 155.286 492.306 155.173 493.122C152.805 510.224 151.134 527.772 148.921 545.033C148.628 547.239 150.279 549.75 150.744 547.293C153.813 530.227 156.458 512.976 159.077 495.497C160.337 486.98 161.717 478.624 163.308 470.36C164.296 465.164 167.373 467.158 167.305 472.913C166.905 506.582 164.685 540.146 161.124 572.827C158.179 599.502 154.194 625.451 149.162 650.185C143.882 676.222 137.741 701.775 130.114 724.074C129.969 724.554 130.354 725.265 130.512 724.899C137.53 705.537 144.402 685.786 149.868 663.467C150.209 662.097 150.49 660.646 150.831 659.276C150.832 659.275 150.832 659.275 150.832 659.276C150.94 660.194 150.982 661.153 151.057 662.091C151.309 665.263 151.591 668.413 151.873 671.562C152.588 679.365 153.35 687.135 153.285 695.141C153.293 695.633 153.651 696.115 153.722 695.44C154.144 687.915 154.064 680.389 153.542 672.94C153.296 669.142 153.019 665.492 152.774 661.694C152.386 655.875 153.002 649.908 154.11 644.705C157.429 629.127 160.318 613.051 162.748 596.499C163.998 587.861 165.149 579.092 166.19 570.228C167.276 560.977 173.073 558.861 174.852 567.41C177.854 581.857 179.523 597.785 180.736 613.677C183.133 644.363 183.142 677.809 178.84 707.475C178.532 709.703 180.1 712.215 180.691 710.272C180.747 710.088 180.703 709.835 180.615 709.768Z" fill={color}/>
<path d="M166.863 52.4898C167.563 49.5602 169.32 50.3017 169.406 53.8167C169.434 54.6093 169.498 55.3818 169.639 56.0944C171.51 65.5386 172.276 76.4927 174.35 85.9799C176.903 97.8303 180.419 108.221 184.288 117.374C191.962 135.49 201.479 147.567 211.136 157.27C216.127 162.183 221.264 166.136 226.506 169.187C227.56 169.8 228.634 170.164 229.714 170.287C231.303 170.469 232.918 170.576 234.517 170.438C238.522 170.031 242.439 169.879 246.408 169.743C254.647 169.716 262.847 168.082 271.107 168.399C283.919 168.858 293.561 185.288 302.046 208.104C302.295 208.801 301.958 209.858 301.609 209.204C296.879 198.58 291.816 188.938 285.92 182.635C279.221 175.496 272.154 175.387 265.026 175.765C257.318 176.24 253.311 179.665 245.586 179.441C244.462 179.401 244.141 182.904 245.08 184.453C245.606 185.321 246.105 186.241 246.549 187.209C252.137 197.911 254.141 208.715 257.196 223.102C257.98 226.79 259.012 230.146 259.78 233.853C260.88 239.157 261.72 245.635 263.299 249.029C266.706 256.367 270.844 260.166 275.258 261.877C285.687 266.029 296.673 262.517 307.19 262.233C315.576 261.952 322.747 267.139 329.8 278.552C336.843 289.868 342.851 304.964 349.924 316.421C350.083 316.696 349.973 317.393 349.776 317.143C342.381 307.629 335.89 294.406 328.736 283.823C324.772 278.035 320.636 273.468 316.201 271.113C310.937 268.159 305.238 269.568 299.916 269.99C288.168 271.124 273.806 274.002 263.546 258.859L263.666 259.362C264.602 263.289 265.535 267.204 266.38 271.229C268.841 282.675 271.007 294.497 273.757 305.416C280.02 330.344 290.768 338.421 301.689 344.265L309.567 348.072C311.239 348.88 311.166 354.946 309.477 355.5L308.988 355.66C308.803 355.721 308.605 355.527 308.515 355.117C308.411 354.64 308.247 354.272 308.032 354.184C305.601 353.189 303.252 352.259 301.089 351.165C291.734 346.452 282.44 345.903 275.702 327.763C269.619 311.312 265.881 294.306 261.471 264.017C262.743 273.982 263.41 284.244 262.966 294.755C261.772 323.801 259.234 350.117 266.443 375.587C269.65 387.213 273.018 397.276 275.524 410.068C278.114 423.13 279.72 437.026 281.12 451.007C281.202 452.045 280.662 452.531 280.503 451.525C276.909 425.094 271.897 402.942 264.812 381.58C259.428 365.349 257.81 344.08 258.587 323.51C259.162 309.346 260.582 295.485 260.191 281.204C259.772 265.245 255.987 249.499 253.074 235.716C251.941 230.322 250.844 224.846 249.676 219.467C249.064 216.652 248.324 214.027 247.485 211.608C243.799 200.972 239.94 191.051 234.09 186.58C228.489 182.282 222.508 182.59 216.869 178.618C212.227 175.335 207.684 171.277 203.244 166.632C200.566 163.798 197.299 171.23 198.221 178.146C198.437 179.759 198.648 181.375 198.859 182.99C200.163 193.059 201.628 200.834 204.569 208.362C206.998 214.341 209.493 220.06 211.822 226.383C216.179 238.333 220.373 252.801 222.563 268.175C222.707 269.027 222.228 269.494 222.089 268.832C218.404 255.237 214.813 242.478 210.208 230.843C206.143 220.672 201.11 211.903 198.224 199.085C195.301 185.974 194.453 170.067 191.701 156.523C190.617 151.055 188.859 146.671 186.908 143.021C184.361 138.259 181.9 133.117 179.487 127.562C175.068 117.185 168.743 103.472 166.629 87.7158C166.115 83.8798 165.669 79.9469 165.369 75.9703C164.768 68.0074 165.336 59.2548 166.863 52.4898Z" fill={color}/>
<path d="M180.615 709.768C180.528 709.701 180.484 709.458 180.521 709.25C185.777 679.821 186.458 649.097 184.373 617.705C183.312 601.825 181.847 585.497 179.123 570.846C177.747 563.406 176.075 556.434 174.541 549.36C173.908 546.487 173.352 543.575 172.826 540.645C171.061 530.822 170.585 519.808 171.157 509.129C172.467 484.665 172.807 460.013 172.043 435.677C171.109 405.9 168.78 376.656 165.943 347.786C164.536 333.267 163.038 318.814 161.552 304.472L161.485 303.824C160.173 291.363 158.636 278.695 157.97 265.756C156.91 244.97 157.922 224.487 159.8 204.332C160.174 200.32 162.315 199.181 163.38 202.317C166.882 212.041 171.062 220.269 175.472 227.457C176.427 229.043 177.386 230.608 178.347 232.161C183.16 239.941 185.604 255.457 186.597 269.603C187.235 278.458 188.381 286.938 189.805 295.213C192.665 311.878 196.766 327.129 200.451 342.687C200.664 343.649 201.457 343.56 201.158 342.289C198.01 327.454 194.769 312.686 192.413 296.893C191.241 289.053 190.208 281.111 189.684 272.794C189.399 268.652 189.298 264.374 189.304 260.142C189.331 255.749 191.435 253.466 192.849 256.057C195.335 260.612 197.762 265.467 200.053 270.853C215.172 305.945 225.566 352.983 231.791 401.733C235.3 429.483 237.86 458.557 238.773 487.728C238.817 489.81 240.539 491.647 240.521 488.924C240.043 437.794 235.296 387.951 226.022 342.324C223.317 329.102 220.308 316.541 216.953 304.672C215.773 300.497 217.064 294.062 219.097 294.464C223.165 295.314 227.141 300.087 230.594 305.121C237.933 315.866 243.926 331.833 248.382 349.682C248.868 351.685 250.514 351.588 249.887 348.818C245.555 329.883 239.857 312.579 232.621 300.142C229.047 294.077 225.01 288.355 220.774 285.64C218.603 284.259 216.308 283.965 214.06 283.636C213.041 283.518 212.023 283.4 211.057 282.87C210.308 282.544 209.662 281.449 209.157 280.027C202.279 260.657 194.334 243.705 185.399 229.45L185.314 229.316C180.528 221.724 175.686 214.044 171.351 204.76C169.141 200.051 167.121 194.827 165.431 188.988C163.491 182.183 163.378 173.252 164.38 165.273C165.287 158.05 166.212 150.877 167.099 143.733C169.985 120.033 172.894 93.2809 173.236 67.2131C173.297 62.5682 173.19 57.8618 173.089 53.2213C173.084 52.9736 173.079 52.7273 173.073 52.4838C173.003 49.1628 173.166 45.8772 173.385 42.5968C173.548 40.1372 173.636 37.6174 173.568 34.9907C173.382 27.4179 172.449 19.8995 171.742 12.5879C171.095 6.22583 169.513 1.30155 166.774 0.216209C164.597 -0.78698 161.527 1.72942 160.559 7.17042C158.917 16.7153 162.187 29.5955 163.466 38.3504C165.334 51.2711 164.88 66.6537 164.092 80.045C162.252 111.001 157.057 140.333 153.602 170.368C149.788 202.907 146.835 235.93 149.581 269.591C151.253 290.243 154.31 309.871 157.183 329.636C160.129 349.595 162.586 369.667 164.191 390.616C164.336 391.847 164.597 393.013 164.695 394.273C165.037 398.686 165.373 403.092 165.664 407.436C166.25 416.522 166.686 425.625 166.972 434.745C167.036 436.764 166.092 438.127 165.585 439.703C163.072 446.533 161.488 455.289 159.897 463.553C159.6 465.138 159.312 466.727 159.031 468.322C157.608 476.384 155.132 483.397 151.848 486.537C149.993 488.28 148.165 490.252 146.391 492.682C142.705 497.644 139.391 504.072 136.443 511.473C130.929 525.247 126.998 540.96 124.308 559.114C124.02 560.943 120.744 587.479 125.785 561.006C128.954 544.364 133.534 529.042 138.925 516.354C141.913 509.297 145.102 503.086 148.709 498.307C150.588 495.819 152.576 493.851 154.523 491.924L154.627 491.82C154.958 491.576 155.286 492.306 155.173 493.122C152.805 510.224 151.134 527.772 148.921 545.033C148.628 547.239 150.279 549.75 150.744 547.293C153.813 530.227 156.458 512.976 159.077 495.497C160.337 486.98 161.717 478.624 163.308 470.36C164.296 465.164 167.373 467.158 167.305 472.913C166.905 506.582 164.685 540.146 161.124 572.827C158.179 599.502 154.194 625.451 149.162 650.185C143.882 676.222 137.741 701.775 130.114 724.074C129.969 724.554 130.354 725.265 130.512 724.899C137.53 705.537 144.402 685.786 149.868 663.467C150.209 662.097 150.49 660.646 150.831 659.276C150.832 659.275 150.832 659.275 150.832 659.276C150.94 660.194 150.982 661.153 151.057 662.091C151.309 665.263 151.591 668.413 151.873 671.562C152.588 679.365 153.35 687.135 153.285 695.141C153.293 695.633 153.651 696.115 153.722 695.44C154.144 687.915 154.064 680.389 153.542 672.94C153.296 669.142 153.019 665.492 152.774 661.694C152.386 655.875 153.002 649.908 154.11 644.705C157.429 629.127 160.318 613.051 162.748 596.499C163.998 587.861 165.149 579.092 166.19 570.228C167.276 560.977 173.073 558.861 174.852 567.41C177.854 581.857 179.523 597.785 180.736 613.677C183.133 644.363 183.142 677.809 178.84 707.475C178.532 709.703 180.1 712.215 180.691 710.272C180.747 710.088 180.703 709.835 180.615 709.768Z" fill={color}/>
<path d="M184.372 617.705C186.457 649.097 185.776 679.821 180.52 709.25C180.483 709.458 180.527 709.701 180.614 709.768C180.702 709.835 180.746 710.088 180.69 710.271C180.099 712.215 178.531 709.703 178.84 707.475C183.141 677.809 183.132 644.363 180.735 613.677C179.522 597.785 177.853 581.857 174.851 567.41C173.072 558.861 167.275 560.977 166.189 570.228C165.148 579.092 163.997 587.861 162.747 596.499C160.317 613.051 157.428 629.127 154.11 644.704C153.001 649.907 152.386 655.875 152.773 661.694C153.018 665.492 153.296 669.142 153.541 672.94C154.064 680.389 154.144 687.915 153.721 695.44C153.65 696.115 153.292 695.633 153.284 695.141C153.349 687.135 152.587 679.365 151.872 671.562C151.59 668.412 151.308 665.263 151.056 662.091C150.982 661.153 150.939 660.194 150.831 659.276C150.831 659.275 150.831 659.275 150.831 659.276C150.49 660.646 150.208 662.097 149.867 663.467C144.402 685.786 137.529 705.537 130.511 724.899C130.353 725.265 129.968 724.554 130.113 724.074C137.741 701.775 143.881 676.222 149.162 650.185C154.193 625.451 158.178 599.501 161.123 572.827C161.453 568.928 161.69 565.2 161.906 561.806L161.915 561.655C162.818 547.449 170.621 537.335 174.283 548.406C174.376 548.686 174.462 549.003 174.54 549.36C176.074 556.434 177.746 563.406 179.122 570.846C181.846 585.497 183.311 601.825 184.372 617.705Z" fill={color}/>
</svg>
