<svg width="20" height="20" viewBox="0 0 20 20" fill="none" xmlns="http://www.w3.org/2000/svg">
<path d="M9.99984 19.0083C9.42484 19.0083 8.88317 18.7167 8.49984 18.2083L7.24984 16.5417C7.22484 16.5083 7.12484 16.4667 7.08317 16.4583H6.6665C3.1915 16.4583 1.0415 15.5167 1.0415 10.8333V6.66667C1.0415 2.98334 2.98317 1.04167 6.6665 1.04167H13.3332C17.0165 1.04167 18.9582 2.98334 18.9582 6.66667V10.8333C18.9582 14.5167 17.0165 16.4583 13.3332 16.4583H12.9165C12.8498 16.4583 12.7915 16.4917 12.7498 16.5417L11.4998 18.2083C11.1165 18.7167 10.5748 19.0083 9.99984 19.0083ZM6.6665 2.29167C3.68317 2.29167 2.2915 3.68334 2.2915 6.66667V10.8333C2.2915 14.6 3.58317 15.2083 6.6665 15.2083H7.08317C7.50817 15.2083 7.9915 15.45 8.24984 15.7917L9.49984 17.4583C9.7915 17.8417 10.2082 17.8417 10.4998 17.4583L11.7498 15.7917C12.0248 15.425 12.4582 15.2083 12.9165 15.2083H13.3332C16.3165 15.2083 17.7082 13.8167 17.7082 10.8333V6.66667C17.7082 3.68334 16.3165 2.29167 13.3332 2.29167H6.6665Z" fill="#13523B"/>
<path d="M14.1668 7.29167H5.8335C5.49183 7.29167 5.2085 7.00834 5.2085 6.66667C5.2085 6.32501 5.49183 6.04167 5.8335 6.04167H14.1668C14.5085 6.04167 14.7918 6.32501 14.7918 6.66667C14.7918 7.00834 14.5085 7.29167 14.1668 7.29167Z" fill="#13523B"/>
<path d="M10.8335 11.4583H5.8335C5.49183 11.4583 5.2085 11.175 5.2085 10.8333C5.2085 10.4917 5.49183 10.2083 5.8335 10.2083H10.8335C11.1752 10.2083 11.4585 10.4917 11.4585 10.8333C11.4585 11.175 11.1752 11.4583 10.8335 11.4583Z" fill="#13523B"/>
</svg>
