<svg width="14" height="318" viewBox="0 0 14 318" fill="none" xmlns="http://www.w3.org/2000/svg">
<path d="M4.466 317.202C3.682 317.202 3.00067 317.001 2.422 316.6C1.84333 316.189 1.39067 315.611 1.064 314.864C0.746667 314.117 0.588 313.226 0.588 312.19C0.588 311.154 0.746667 310.263 1.064 309.516C1.39067 308.76 1.84333 308.181 2.422 307.78C3.00067 307.379 3.682 307.178 4.466 307.178C5.25933 307.178 5.94533 307.379 6.524 307.78C7.10267 308.181 7.55067 308.76 7.868 309.516C8.19467 310.263 8.358 311.154 8.358 312.19C8.358 313.226 8.19467 314.117 7.868 314.864C7.55067 315.611 7.10267 316.189 6.524 316.6C5.94533 317.001 5.25933 317.202 4.466 317.202ZM4.466 315.788C5.18467 315.788 5.73533 315.48 6.118 314.864C6.51 314.239 6.706 313.347 6.706 312.19C6.706 311.023 6.51 310.132 6.118 309.516C5.73533 308.9 5.18467 308.592 4.466 308.592C3.75667 308.592 3.206 308.9 2.814 309.516C2.43133 310.132 2.24 311.023 2.24 312.19C2.24 313.347 2.43133 314.239 2.814 314.864C3.206 315.48 3.75667 315.788 4.466 315.788ZM11.4334 317.09V309.138C11.1907 309.399 10.8734 309.623 10.4814 309.81C10.0894 309.997 9.66007 310.151 9.19341 310.272L9.02541 308.844C9.46407 308.751 9.92607 308.569 10.4114 308.298C10.8967 308.018 11.3261 307.682 11.6994 307.29H13.0854V317.09H11.4334Z" fill="#272724"/>
</svg>
