<svg width="1058" height="792" viewBox="0 0 1058 792" fill="none" xmlns="http://www.w3.org/2000/svg" xmlns:xlink="http://www.w3.org/1999/xlink">
<g clip-path="url(#clip0_978_18583)">
<path d="M475.333 118.838C474.36 116.336 470.847 116.327 470.216 119.022V119.022C470.056 119.626 469.829 120.204 469.46 120.709C464.572 127.404 461.634 135.637 456.347 142.299C449.815 150.632 441.605 157.515 432.872 163.321C415.558 174.807 395.463 181.003 375.407 185.312C365.341 187.402 355.125 188.743 344.827 189.387C342.119 189.556 339.401 189.463 336.71 189.117C333.88 188.754 331.023 188.326 328.22 187.747C320.49 186.102 312.897 184.683 305.201 183.259C289.191 180.501 273.47 176.512 257.375 174.013C232.412 170.112 211.496 179.639 191.983 194.498C191.407 194.955 191.922 195.886 192.686 195.495C203.286 188.835 214.405 183.047 226.699 180.122C240.665 176.816 254.413 179.079 268.217 181.74C283.136 184.669 290.47 188.653 305.515 191.046V191.046C307.704 191.388 307.864 194.209 305.834 195.097C304.697 195.595 303.605 196.142 302.614 196.744C290.77 202.953 285.395 210.342 277.99 219.951C275.439 223.261 272.353 226.174 269.924 229.574C267.402 233.105 265.058 237.171 261.873 239.078C254.279 243.631 245.734 245.2 236.927 245.059C216.107 244.811 195.221 238.441 174.817 234.727C158.554 231.724 143.931 233.36 128.711 239.86C113.524 246.288 99.8468 255.988 84.5822 262.515C84.2384 262.675 84.3592 263.252 84.7748 263.124C100.407 258.209 114.775 250.12 130.081 244.297C138.551 241.13 147.196 238.965 156.127 238.614C166.749 238.074 177.64 241.059 187.927 243.154C207.013 247.176 229.532 252.771 249.268 249.486C252.195 248.998 254.75 252.899 252.945 255.254V255.254C246.645 263.305 240.87 271.745 234.08 279.291C218.605 296.524 196.645 299.212 174.646 300.112C156.879 300.673 136.393 298.829 119.927 306.693C113.361 309.843 107.572 314.286 103.338 320.335C97.2613 329.288 90.4198 336.349 82.872 344.154C79.0383 348.084 75.8239 352.245 73.556 357.181C73.1068 358.068 74.3095 358.678 74.8285 357.866C80.1382 349.362 88.1572 343.481 95.577 336.914C103.123 330.148 107.34 320.863 115.601 314.802C118.633 312.583 121.977 310.897 125.534 309.619C134.471 306.406 142.398 320.107 138.694 328.853V328.853C133.743 340.506 126.4 350.297 115.922 357.489C105.137 365.005 92.7313 370.121 81.8048 377.528C71.1809 384.714 61.5787 393.292 53.2461 402.951C52.5849 403.668 53.586 404.532 54.2148 403.887C63.7847 394.385 74.5406 386.531 86.1286 379.725C97.4763 373.054 109.858 368.156 120.68 360.789C128.801 355.248 134.849 347.597 139.745 339.191C146.056 328.227 148.712 314.54 159.511 306.689V306.689C160.128 306.199 160.803 305.688 161.591 305.694C166.239 305.731 170.724 305.78 174.899 305.657C193.705 305.113 211.842 307.775 227.34 295.959C241.341 285.234 250.858 273.299 263.441 251.298C259.648 258.596 256.993 266.325 256.465 274.616C254.939 297.517 256.386 318.749 239.003 336.089C231.229 344.03 223.351 350.708 216.786 359.787C210.023 369.047 205.061 379.279 200.489 389.646C200.191 390.424 201.176 390.98 201.618 390.253C212.104 370.969 224.78 355.471 241.379 341.273C253.992 330.486 259.953 314.545 261.168 298.349C261.925 287.184 261.002 275.974 263.652 265.038C266.579 252.813 276.023 241.871 283.509 232.16C286.217 228.629 288.874 225.032 291.628 221.51C293.603 218.985 295.874 216.707 298.363 214.686C306.687 207.929 315.323 201.87 326.914 200.396C338.368 198.927 349.951 201.152 361.438 199.948C370.895 198.947 380.263 197.312 389.506 195.188V195.188C395.088 193.882 400.453 200.725 397.744 205.777C397.112 206.956 396.487 208.137 395.864 209.318C391.995 216.686 388.12 222.224 381.405 227.079C375.892 230.905 370.287 234.507 364.923 238.632C354.871 246.444 344.804 256.26 338.512 267.444C338.119 268.056 338.989 268.578 339.346 268.11C348.308 258.801 356.978 250.109 367.469 242.624C376.717 236.095 387.659 230.972 394.966 222C402.385 212.813 406.138 200.77 413.282 191.19V191.19C416.112 187.314 420.109 184.501 424.385 182.321C429.965 179.478 435.429 176.311 440.855 172.809C450.487 166.455 463.997 158.277 470.48 147.343C472.545 143.862 474.33 140.153 475.551 136.294C477.347 130.613 477.263 124.195 475.333 118.838Z" fill="#E5732E"/>
<path d="M103.337 320.333C107.572 314.285 113.361 309.842 119.927 306.692C129.802 300.942 146.549 300.018 156.184 300.327C158.148 300.39 159.754 301.85 160.101 303.784L160.285 304.807C160.42 305.554 160.105 306.215 159.511 306.687C148.711 314.539 146.056 328.226 139.744 339.19C134.849 347.595 128.801 355.247 120.68 360.787C109.858 368.155 97.4759 373.053 86.1282 379.724C74.5403 386.53 63.7844 394.384 54.2144 403.885C53.5857 404.531 52.5845 403.667 53.2458 402.95C61.5783 393.291 71.1806 384.713 81.8045 377.527C92.731 370.12 105.137 365.004 115.922 357.488C126.4 350.295 133.743 340.505 138.694 328.852C142.397 320.106 134.471 306.405 125.533 309.617C121.977 310.896 118.632 312.581 115.601 314.801C107.34 320.862 103.122 330.147 95.5767 336.913C88.1568 343.479 80.1379 349.361 74.8281 357.865C74.3091 358.677 73.1064 358.067 73.5556 357.179C75.8235 352.244 79.0379 348.082 82.8716 344.153L82.9893 344.031C90.4906 336.274 97.2926 329.24 103.337 320.333Z" fill="#29644D"/>
<path d="M471.622 98.5057C473.378 95.576 477.785 96.3176 478 99.8325V99.8325C478.071 100.625 478.231 101.398 478.585 102.11C483.28 111.555 485.201 122.509 490.403 131.996C496.808 143.847 505.628 154.238 515.335 163.39C534.586 181.506 558.459 193.584 582.686 203.287C595.205 208.2 608.093 212.153 621.243 215.204C623.886 215.817 626.58 216.18 629.291 216.304C633.276 216.486 637.329 216.593 641.34 216.454C651.386 216.048 661.213 215.896 671.169 215.76C691.838 215.733 712.408 214.099 733.128 214.416C765.268 214.875 789.457 231.305 810.742 254.121C811.367 254.818 810.521 255.875 809.647 255.221C797.781 244.597 785.079 234.955 770.287 228.652C753.482 221.513 735.756 221.404 717.875 221.782C698.537 222.257 688.487 225.682 669.106 225.458V225.458C666.287 225.418 665.483 228.921 667.838 230.47C669.158 231.338 670.41 232.258 671.524 233.226C685.541 243.928 690.569 254.733 698.232 269.119C700.197 272.807 702.786 276.164 704.714 279.871C707.472 285.175 709.581 291.652 713.54 295.047C722.088 302.385 732.468 306.184 743.542 307.895C769.705 312.046 797.263 308.535 823.646 308.251C844.685 307.97 862.673 313.157 880.366 324.57C898.033 335.886 913.107 350.983 930.85 362.44C931.247 362.714 930.972 363.411 930.478 363.162C911.928 353.647 895.644 340.424 877.696 329.841C867.754 324.053 857.376 319.486 846.252 317.131C833.046 314.177 818.749 315.586 805.4 316.008C775.928 317.142 739.899 320.02 714.161 304.876L714.462 305.38C716.81 309.307 719.15 313.222 721.27 317.247C727.444 328.693 732.878 340.515 739.775 351.434C755.488 376.362 782.452 384.44 809.846 390.284L829.609 394.091C833.805 394.899 833.622 400.965 829.385 401.519L828.157 401.679C827.694 401.739 827.196 401.546 826.971 401.136V401.136C826.709 400.658 826.297 400.29 825.76 400.203C819.66 399.208 813.768 398.277 808.341 397.183C784.874 392.471 761.558 391.921 744.655 373.782C729.395 357.33 720.019 340.324 708.956 310.035C712.147 320 713.82 330.262 712.705 340.773C709.71 369.82 703.345 396.136 721.428 421.606C729.474 433.232 737.923 443.295 744.209 456.087C750.706 469.149 754.735 483.045 758.247 497.026C758.454 498.065 757.099 498.551 756.7 497.544C747.684 471.114 735.11 448.961 717.336 427.599C703.831 411.368 699.772 390.099 701.721 369.528C703.164 355.364 706.725 341.503 705.745 327.222C704.695 311.262 695.197 295.517 687.891 281.734C685.048 276.34 682.298 270.863 679.366 265.484C677.832 262.67 675.975 260.045 673.871 257.625C664.624 246.989 654.942 237.069 640.267 232.597C626.217 228.299 611.214 228.607 597.068 224.635C585.422 221.352 574.025 217.294 562.888 212.649V212.649C556.169 209.815 547.973 217.247 550.288 224.163C550.827 225.776 551.359 227.392 551.887 229.007C555.159 239.076 558.832 246.851 566.212 254.379C572.305 260.359 578.562 266.077 584.406 272.4C595.337 284.351 605.857 298.819 611.351 314.193C611.712 315.045 610.509 315.512 610.161 314.85C600.919 301.255 591.909 288.495 580.357 276.861C570.159 266.69 557.535 257.92 550.295 245.102C542.96 231.991 540.834 216.084 533.93 202.54V202.54C531.211 197.072 526.801 192.688 521.906 189.038C515.518 184.275 509.344 179.133 503.291 173.578C492.206 163.202 476.337 149.488 471.035 133.732C469.745 129.896 468.628 125.963 467.874 121.986C466.366 114.023 467.792 105.271 471.622 98.5057Z" fill="#E5732E"/>
<circle cx="7" cy="7" r="6" transform="matrix(1 0 0 -1 334 275)" fill="#317259" stroke="#578574" stroke-width="2"/>
<circle cx="7" cy="7" r="6" transform="matrix(1 0 0 -1 357 622)" fill="#317259" stroke="#578574" stroke-width="2"/>
<circle cx="477" cy="48" r="48" fill="#317259"/>
<g filter="url(#filter0_f_978_18583)">
<rect x="309" y="235.5" width="66" height="66" rx="33" fill="#E1D59C"/>
</g>
<path d="M312.847 243.914H369.837V291.406H312.847V243.914Z" fill="url(#pattern0_978_18583)"/>
<g filter="url(#filter1_f_978_18583)">
<circle cx="341.5" cy="267.5" r="36.9686" transform="rotate(150 341.5 267.5)" fill="url(#paint0_radial_978_18583)"/>
<circle cx="341.5" cy="267.5" r="36.9686" transform="rotate(150 341.5 267.5)" fill="url(#paint1_radial_978_18583)"/>
</g>
<circle cx="341.5" cy="267.5" r="36.9686" transform="rotate(-6.99484 341.5 267.5)" fill="url(#paint2_radial_978_18583)"/>
<circle cx="341.5" cy="267.5" r="36.9686" transform="rotate(-6.99484 341.5 267.5)" fill="url(#paint3_radial_978_18583)"/>
<g filter="url(#filter2_f_978_18583)">
<rect x="633.385" y="503.703" width="46.4121" height="46.4121" rx="23.2061" fill="#F0BF84"/>
</g>
<path d="M628.616 503.387H684.76V550.174H628.616V503.387Z" fill="url(#pattern1_978_18583)"/>
<g filter="url(#filter3_f_978_18583)">
<ellipse cx="36.3284" cy="36.5114" rx="36.3284" ry="36.5114" transform="matrix(-0.863836 0.503774 -0.496236 -0.868188 706 540.398)" fill="url(#paint4_radial_978_18583)"/>
<ellipse cx="36.3284" cy="36.5114" rx="36.3284" ry="36.5114" transform="matrix(-0.863836 0.503774 -0.496236 -0.868188 706 540.398)" fill="url(#paint5_radial_978_18583)"/>
</g>
<ellipse cx="36.242" cy="36.5972" rx="36.242" ry="36.5972" transform="matrix(0.992408 -0.122992 0.12058 0.992704 616.121 495.129)" fill="url(#paint6_radial_978_18583)"/>
<ellipse cx="36.242" cy="36.5972" rx="36.242" ry="36.5972" transform="matrix(0.992408 -0.122992 0.12058 0.992704 616.121 495.129)" fill="url(#paint7_radial_978_18583)"/>
<g filter="url(#filter4_f_978_18583)">
<rect x="28" y="354.5" width="66" height="66" rx="33" fill="#E1D59C"/>
</g>
<path d="M31.8467 362.914H88.8373V410.406H31.8467V362.914Z" fill="url(#pattern2_978_18583)"/>
<g filter="url(#filter5_f_978_18583)">
<circle cx="60.4999" cy="386.5" r="36.9686" transform="rotate(150 60.4999 386.5)" fill="url(#paint8_radial_978_18583)"/>
<circle cx="60.4999" cy="386.5" r="36.9686" transform="rotate(150 60.4999 386.5)" fill="url(#paint9_radial_978_18583)"/>
</g>
<circle cx="60.5002" cy="386.5" r="36.9686" transform="rotate(-6.99484 60.5002 386.5)" fill="url(#paint10_radial_978_18583)"/>
<circle cx="60.5002" cy="386.5" r="36.9686" transform="rotate(-6.99484 60.5002 386.5)" fill="url(#paint11_radial_978_18583)"/>
<g filter="url(#filter6_f_978_18583)">
<rect x="332" y="573.5" width="66" height="66" rx="33" fill="#E1D59C"/>
</g>
<path d="M335.847 581.914H392.837V629.406H335.847V581.914Z" fill="url(#pattern3_978_18583)"/>
<g filter="url(#filter7_f_978_18583)">
<circle cx="364.5" cy="605.5" r="36.9686" transform="rotate(150 364.5 605.5)" fill="url(#paint12_radial_978_18583)"/>
<circle cx="364.5" cy="605.5" r="36.9686" transform="rotate(150 364.5 605.5)" fill="url(#paint13_radial_978_18583)"/>
</g>
<circle cx="364.5" cy="605.5" r="36.9686" transform="rotate(-6.99484 364.5 605.5)" fill="url(#paint14_radial_978_18583)"/>
<circle cx="364.5" cy="605.5" r="36.9686" transform="rotate(-6.99484 364.5 605.5)" fill="url(#paint15_radial_978_18583)"/>
<path d="M930.048 652.192C928.912 652.192 927.848 652 926.856 651.616C925.88 651.216 925.024 650.648 924.288 649.912C923.552 649.176 922.984 648.28 922.584 647.224C922.184 646.152 921.984 644.944 921.984 643.6C921.984 642.304 922.176 641.128 922.56 640.072C922.944 639.016 923.496 638.112 924.216 637.36C924.952 636.608 925.816 636.032 926.808 635.632C927.816 635.216 928.936 635.008 930.168 635.008C931.448 635.008 932.576 635.216 933.552 635.632C934.544 636.048 935.352 636.648 935.976 637.432C936.6 638.216 937.008 639.144 937.2 640.216L934.992 640.6C934.864 639.864 934.584 639.224 934.152 638.68C933.72 638.12 933.16 637.688 932.472 637.384C931.8 637.064 931.024 636.904 930.144 636.904C929.248 636.904 928.432 637.064 927.696 637.384C926.976 637.688 926.352 638.136 925.824 638.728C925.296 639.32 924.888 640.032 924.6 640.864C924.328 641.68 924.192 642.592 924.192 643.6C924.192 644.96 924.44 646.144 924.936 647.152C925.432 648.16 926.128 648.936 927.024 649.48C927.936 650.024 928.992 650.296 930.192 650.296C930.96 650.296 931.656 650.176 932.28 649.936C932.92 649.68 933.464 649.32 933.912 648.856C934.36 648.392 934.704 647.848 934.944 647.224C935.2 646.6 935.336 645.912 935.352 645.16H929.424V643.384H937.392V652H935.328V649.6C935.088 650.096 934.704 650.544 934.176 650.944C933.648 651.328 933.032 651.632 932.328 651.856C931.624 652.08 930.864 652.192 930.048 652.192ZM945.223 652.192C944.039 652.192 942.983 651.928 942.055 651.4C941.143 650.856 940.423 650.12 939.895 649.192C939.367 648.248 939.103 647.168 939.103 645.952C939.103 645.04 939.255 644.208 939.559 643.456C939.863 642.688 940.287 642.024 940.831 641.464C941.375 640.904 942.015 640.472 942.751 640.168C943.503 639.864 944.327 639.712 945.223 639.712C946.407 639.712 947.455 639.984 948.367 640.528C949.295 641.056 950.023 641.792 950.551 642.736C951.079 643.664 951.343 644.736 951.343 645.952C951.343 646.864 951.191 647.704 950.887 648.472C950.583 649.224 950.151 649.88 949.591 650.44C949.047 651 948.407 651.432 947.671 651.736C946.935 652.04 946.119 652.192 945.223 652.192ZM945.223 650.392C945.815 650.392 946.351 650.288 946.831 650.08C947.327 649.856 947.751 649.552 948.103 649.168C948.471 648.768 948.751 648.296 948.943 647.752C949.151 647.208 949.255 646.608 949.255 645.952C949.255 645.072 949.079 644.296 948.727 643.624C948.391 642.952 947.919 642.432 947.311 642.064C946.703 641.68 946.007 641.488 945.223 641.488C944.631 641.488 944.087 641.6 943.591 641.824C943.111 642.032 942.687 642.336 942.319 642.736C941.967 643.12 941.687 643.592 941.479 644.152C941.287 644.696 941.191 645.296 941.191 645.952C941.191 646.816 941.359 647.592 941.695 648.28C942.047 648.952 942.527 649.472 943.135 649.84C943.743 650.208 944.439 650.392 945.223 650.392ZM953.336 652V635.008H955.4V652H953.336ZM955.16 647.776V645.112L961.04 639.904H963.8L955.16 647.776ZM961.76 652L956.864 645.52L958.448 644.2L964.232 652H961.76ZM968.769 652.192C967.857 652.192 967.057 652.04 966.369 651.736C965.681 651.416 965.113 650.992 964.665 650.464C964.233 649.92 963.929 649.304 963.753 648.616L965.625 648.016C965.801 648.784 966.153 649.384 966.681 649.816C967.209 650.232 967.905 650.44 968.769 650.44C969.265 650.44 969.697 650.368 970.065 650.224C970.433 650.064 970.721 649.848 970.929 649.576C971.137 649.304 971.241 648.96 971.241 648.544C971.241 648.112 971.121 647.776 970.881 647.536C970.641 647.28 970.313 647.08 969.897 646.936C969.481 646.776 969.025 646.64 968.529 646.528C968.033 646.4 967.537 646.264 967.041 646.12C966.561 645.96 966.113 645.76 965.697 645.52C965.281 645.264 964.945 644.936 964.689 644.536C964.449 644.12 964.329 643.6 964.329 642.976C964.329 642.352 964.497 641.792 964.833 641.296C965.185 640.8 965.673 640.416 966.297 640.144C966.921 639.856 967.633 639.712 968.433 639.712C969.233 639.712 969.945 639.832 970.569 640.072C971.209 640.312 971.745 640.656 972.177 641.104C972.625 641.552 972.937 642.088 973.113 642.712L971.241 643.384C971.049 642.68 970.705 642.184 970.209 641.896C969.713 641.608 969.121 641.464 968.433 641.464C968.049 641.464 967.697 641.52 967.377 641.632C967.073 641.728 966.825 641.88 966.633 642.088C966.441 642.296 966.345 642.568 966.345 642.904C966.345 643.288 966.473 643.592 966.729 643.816C966.985 644.024 967.321 644.2 967.737 644.344C968.153 644.472 968.601 644.6 969.081 644.728C969.577 644.84 970.073 644.976 970.569 645.136C971.065 645.28 971.521 645.488 971.937 645.76C972.353 646.016 972.689 646.368 972.945 646.816C973.201 647.248 973.329 647.808 973.329 648.496C973.329 649.216 973.129 649.856 972.729 650.416C972.329 650.976 971.785 651.416 971.097 651.736C970.425 652.04 969.649 652.192 968.769 652.192ZM975.298 652V635.008H977.338V641.992C977.578 641.576 977.906 641.192 978.322 640.84C978.738 640.488 979.226 640.216 979.786 640.024C980.346 639.816 980.962 639.712 981.634 639.712C982.482 639.712 983.242 639.888 983.914 640.24C984.602 640.576 985.138 641.072 985.522 641.728C985.922 642.368 986.122 643.152 986.122 644.08V652H984.058V644.536C984.058 643.88 983.938 643.328 983.698 642.88C983.458 642.432 983.13 642.096 982.714 641.872C982.298 641.632 981.802 641.512 981.226 641.512C980.442 641.512 979.754 641.728 979.162 642.16C978.586 642.592 978.138 643.208 977.818 644.008C977.498 644.792 977.338 645.728 977.338 646.816V652H975.298ZM993.107 652.192C992.243 652.192 991.467 652.024 990.779 651.688C990.107 651.336 989.579 650.84 989.195 650.2C988.811 649.56 988.619 648.776 988.619 647.848V639.904H990.683V647.368C990.683 648.008 990.795 648.56 991.019 649.024C991.259 649.472 991.587 649.816 992.003 650.056C992.435 650.28 992.931 650.392 993.491 650.392C994.291 650.392 994.979 650.176 995.555 649.744C996.147 649.312 996.603 648.696 996.923 647.896C997.243 647.096 997.403 646.16 997.403 645.088V639.904H999.443V652H997.403V649.912C997.147 650.328 996.811 650.712 996.395 651.064C995.995 651.416 995.515 651.696 994.955 651.904C994.395 652.096 993.779 652.192 993.107 652.192ZM1002.23 652V639.904H1004.27V642.04C1004.51 641.528 1004.82 641.096 1005.2 640.744C1005.59 640.392 1006.03 640.136 1006.52 639.976C1007.02 639.8 1007.52 639.712 1008.04 639.712C1008.29 639.712 1008.56 639.736 1008.83 639.784C1009.1 639.816 1009.33 639.88 1009.52 639.976L1009.38 641.92C1009.11 641.792 1008.84 641.72 1008.59 641.704C1008.33 641.672 1008.08 641.656 1007.82 641.656C1007.32 641.656 1006.85 641.776 1006.4 642.016C1005.97 642.256 1005.6 642.608 1005.28 643.072C1004.96 643.536 1004.71 644.112 1004.53 644.8C1004.36 645.488 1004.27 646.272 1004.27 647.152V652H1002.23ZM1014.02 652.192C1013.14 652.192 1012.38 652.048 1011.74 651.76C1011.1 651.456 1010.61 651.04 1010.25 650.512C1009.92 649.984 1009.75 649.392 1009.75 648.736C1009.75 647.52 1010.18 646.592 1011.05 645.952C1011.93 645.312 1013.33 644.896 1015.27 644.704L1018.25 644.392V645.976L1015.39 646.312C1014.56 646.408 1013.88 646.552 1013.35 646.744C1012.82 646.92 1012.43 647.16 1012.17 647.464C1011.93 647.768 1011.81 648.168 1011.81 648.664C1011.81 649.256 1012.03 649.72 1012.46 650.056C1012.89 650.376 1013.47 650.536 1014.19 650.536C1014.91 650.536 1015.54 650.36 1016.09 650.008C1016.65 649.64 1017.08 649.16 1017.38 648.568C1017.7 647.96 1017.86 647.304 1017.86 646.6V644.008C1017.86 643.464 1017.73 643.008 1017.48 642.64C1017.24 642.272 1016.9 641.984 1016.47 641.776C1016.04 641.568 1015.53 641.464 1014.93 641.464C1014.37 641.464 1013.88 641.56 1013.45 641.752C1013.03 641.928 1012.69 642.208 1012.41 642.592C1012.16 642.976 1011.99 643.448 1011.91 644.008L1009.94 643.672C1010.09 642.904 1010.37 642.224 1010.81 641.632C1011.24 641.024 1011.81 640.552 1012.51 640.216C1013.21 639.88 1014.02 639.712 1014.93 639.712C1015.89 639.712 1016.75 639.896 1017.5 640.264C1018.25 640.616 1018.85 641.136 1019.28 641.824C1019.71 642.496 1019.93 643.296 1019.93 644.224V652H1017.86V649.984C1017.7 650.368 1017.43 650.728 1017.05 651.064C1016.66 651.4 1016.21 651.672 1015.68 651.88C1015.15 652.088 1014.6 652.192 1014.02 652.192Z" fill="#FEF8F3"/>
<path d="M268.048 679.192C266.912 679.192 265.848 679 264.856 678.616C263.88 678.216 263.024 677.648 262.288 676.912C261.552 676.176 260.984 675.28 260.584 674.224C260.184 673.152 259.984 671.944 259.984 670.6C259.984 669.304 260.176 668.128 260.56 667.072C260.944 666.016 261.496 665.112 262.216 664.36C262.952 663.608 263.816 663.032 264.808 662.632C265.816 662.216 266.936 662.008 268.168 662.008C269.448 662.008 270.576 662.216 271.552 662.632C272.544 663.048 273.352 663.648 273.976 664.432C274.6 665.216 275.008 666.144 275.2 667.216L272.992 667.6C272.864 666.864 272.584 666.224 272.152 665.68C271.72 665.12 271.16 664.688 270.472 664.384C269.8 664.064 269.024 663.904 268.144 663.904C267.248 663.904 266.432 664.064 265.696 664.384C264.976 664.688 264.352 665.136 263.824 665.728C263.296 666.32 262.888 667.032 262.6 667.864C262.328 668.68 262.192 669.592 262.192 670.6C262.192 671.96 262.44 673.144 262.936 674.152C263.432 675.16 264.128 675.936 265.024 676.48C265.936 677.024 266.992 677.296 268.192 677.296C268.96 677.296 269.656 677.176 270.28 676.936C270.92 676.68 271.464 676.32 271.912 675.856C272.36 675.392 272.704 674.848 272.944 674.224C273.2 673.6 273.336 672.912 273.352 672.16H267.424V670.384H275.392V679H273.328V676.6C273.088 677.096 272.704 677.544 272.176 677.944C271.648 678.328 271.032 678.632 270.328 678.856C269.624 679.08 268.864 679.192 268.048 679.192ZM283.223 679.192C282.039 679.192 280.983 678.928 280.055 678.4C279.143 677.856 278.423 677.12 277.895 676.192C277.367 675.248 277.103 674.168 277.103 672.952C277.103 672.04 277.255 671.208 277.559 670.456C277.863 669.688 278.287 669.024 278.831 668.464C279.375 667.904 280.015 667.472 280.751 667.168C281.503 666.864 282.327 666.712 283.223 666.712C284.407 666.712 285.455 666.984 286.367 667.528C287.295 668.056 288.023 668.792 288.551 669.736C289.079 670.664 289.343 671.736 289.343 672.952C289.343 673.864 289.191 674.704 288.887 675.472C288.583 676.224 288.151 676.88 287.591 677.44C287.047 678 286.407 678.432 285.671 678.736C284.935 679.04 284.119 679.192 283.223 679.192ZM283.223 677.392C283.815 677.392 284.351 677.288 284.831 677.08C285.327 676.856 285.751 676.552 286.103 676.168C286.471 675.768 286.751 675.296 286.943 674.752C287.151 674.208 287.255 673.608 287.255 672.952C287.255 672.072 287.079 671.296 286.727 670.624C286.391 669.952 285.919 669.432 285.311 669.064C284.703 668.68 284.007 668.488 283.223 668.488C282.631 668.488 282.087 668.6 281.591 668.824C281.111 669.032 280.687 669.336 280.319 669.736C279.967 670.12 279.687 670.592 279.479 671.152C279.287 671.696 279.191 672.296 279.191 672.952C279.191 673.816 279.359 674.592 279.695 675.28C280.047 675.952 280.527 676.472 281.135 676.84C281.743 677.208 282.439 677.392 283.223 677.392ZM291.336 679V662.008H293.4V679H291.336ZM293.16 674.776V672.112L299.04 666.904H301.8L293.16 674.776ZM299.76 679L294.864 672.52L296.448 671.2L302.232 679H299.76ZM306.769 679.192C305.857 679.192 305.057 679.04 304.369 678.736C303.681 678.416 303.113 677.992 302.665 677.464C302.233 676.92 301.929 676.304 301.753 675.616L303.625 675.016C303.801 675.784 304.153 676.384 304.681 676.816C305.209 677.232 305.905 677.44 306.769 677.44C307.265 677.44 307.697 677.368 308.065 677.224C308.433 677.064 308.721 676.848 308.929 676.576C309.137 676.304 309.241 675.96 309.241 675.544C309.241 675.112 309.121 674.776 308.881 674.536C308.641 674.28 308.313 674.08 307.897 673.936C307.481 673.776 307.025 673.64 306.529 673.528C306.033 673.4 305.537 673.264 305.041 673.12C304.561 672.96 304.113 672.76 303.697 672.52C303.281 672.264 302.945 671.936 302.689 671.536C302.449 671.12 302.329 670.6 302.329 669.976C302.329 669.352 302.497 668.792 302.833 668.296C303.185 667.8 303.673 667.416 304.297 667.144C304.921 666.856 305.633 666.712 306.433 666.712C307.233 666.712 307.945 666.832 308.569 667.072C309.209 667.312 309.745 667.656 310.177 668.104C310.625 668.552 310.937 669.088 311.113 669.712L309.241 670.384C309.049 669.68 308.705 669.184 308.209 668.896C307.713 668.608 307.121 668.464 306.433 668.464C306.049 668.464 305.697 668.52 305.377 668.632C305.073 668.728 304.825 668.88 304.633 669.088C304.441 669.296 304.345 669.568 304.345 669.904C304.345 670.288 304.473 670.592 304.729 670.816C304.985 671.024 305.321 671.2 305.737 671.344C306.153 671.472 306.601 671.6 307.081 671.728C307.577 671.84 308.073 671.976 308.569 672.136C309.065 672.28 309.521 672.488 309.937 672.76C310.353 673.016 310.689 673.368 310.945 673.816C311.201 674.248 311.329 674.808 311.329 675.496C311.329 676.216 311.129 676.856 310.729 677.416C310.329 677.976 309.785 678.416 309.097 678.736C308.425 679.04 307.649 679.192 306.769 679.192ZM313.298 679V662.008H315.338V668.992C315.578 668.576 315.906 668.192 316.322 667.84C316.738 667.488 317.226 667.216 317.786 667.024C318.346 666.816 318.962 666.712 319.634 666.712C320.482 666.712 321.242 666.888 321.914 667.24C322.602 667.576 323.138 668.072 323.522 668.728C323.922 669.368 324.122 670.152 324.122 671.08V679H322.058V671.536C322.058 670.88 321.938 670.328 321.698 669.88C321.458 669.432 321.13 669.096 320.714 668.872C320.298 668.632 319.802 668.512 319.226 668.512C318.442 668.512 317.754 668.728 317.162 669.16C316.586 669.592 316.138 670.208 315.818 671.008C315.498 671.792 315.338 672.728 315.338 673.816V679H313.298ZM331.107 679.192C330.243 679.192 329.467 679.024 328.779 678.688C328.107 678.336 327.579 677.84 327.195 677.2C326.811 676.56 326.619 675.776 326.619 674.848V666.904H328.683V674.368C328.683 675.008 328.795 675.56 329.019 676.024C329.259 676.472 329.587 676.816 330.003 677.056C330.435 677.28 330.931 677.392 331.491 677.392C332.291 677.392 332.979 677.176 333.555 676.744C334.147 676.312 334.603 675.696 334.923 674.896C335.243 674.096 335.403 673.16 335.403 672.088V666.904H337.443V679H335.403V676.912C335.147 677.328 334.811 677.712 334.395 678.064C333.995 678.416 333.515 678.696 332.955 678.904C332.395 679.096 331.779 679.192 331.107 679.192ZM340.229 679V666.904H342.269V669.04C342.509 668.528 342.821 668.096 343.205 667.744C343.589 667.392 344.029 667.136 344.525 666.976C345.021 666.8 345.525 666.712 346.037 666.712C346.293 666.712 346.557 666.736 346.829 666.784C347.101 666.816 347.333 666.88 347.525 666.976L347.381 668.92C347.109 668.792 346.845 668.72 346.589 668.704C346.333 668.672 346.077 668.656 345.821 668.656C345.325 668.656 344.853 668.776 344.405 669.016C343.973 669.256 343.597 669.608 343.277 670.072C342.957 670.536 342.709 671.112 342.533 671.8C342.357 672.488 342.269 673.272 342.269 674.152V679H340.229ZM352.022 679.192C351.142 679.192 350.382 679.048 349.742 678.76C349.102 678.456 348.606 678.04 348.254 677.512C347.918 676.984 347.75 676.392 347.75 675.736C347.75 674.52 348.182 673.592 349.046 672.952C349.926 672.312 351.334 671.896 353.27 671.704L356.246 671.392V672.976L353.39 673.312C352.558 673.408 351.878 673.552 351.35 673.744C350.822 673.92 350.43 674.16 350.174 674.464C349.934 674.768 349.814 675.168 349.814 675.664C349.814 676.256 350.03 676.72 350.462 677.056C350.894 677.376 351.47 677.536 352.19 677.536C352.91 677.536 353.542 677.36 354.086 677.008C354.646 676.64 355.078 676.16 355.382 675.568C355.702 674.96 355.862 674.304 355.862 673.6V671.008C355.862 670.464 355.734 670.008 355.478 669.64C355.238 669.272 354.902 668.984 354.47 668.776C354.038 668.568 353.526 668.464 352.934 668.464C352.374 668.464 351.878 668.56 351.446 668.752C351.03 668.928 350.686 669.208 350.414 669.592C350.158 669.976 349.99 670.448 349.91 671.008L347.942 670.672C348.086 669.904 348.374 669.224 348.806 668.632C349.238 668.024 349.806 667.552 350.51 667.216C351.214 666.88 352.022 666.712 352.934 666.712C353.894 666.712 354.75 666.896 355.502 667.264C356.254 667.616 356.846 668.136 357.278 668.824C357.71 669.496 357.926 670.296 357.926 671.224V679H355.862V676.984C355.702 677.368 355.43 677.728 355.046 678.064C354.662 678.4 354.206 678.672 353.678 678.88C353.15 679.088 352.598 679.192 352.022 679.192Z" fill="#FEF8F3"/>
<path d="M895.276 430.481C891.157 421.757 886.648 416.454 878.888 410.95C867.439 401.367 846.076 396.482 833.6 394.755C831.058 394.402 828.667 395.929 827.793 398.342L827.331 399.619C826.993 400.551 827.252 401.473 827.913 402.212C840.089 414.705 840.489 432.917 846.198 448.428C850.648 460.332 856.749 471.52 865.984 480.446C878.296 492.321 893.16 501.36 906.302 512.454C919.723 523.775 931.842 536.262 942.07 550.609C942.737 551.579 944.217 550.687 943.524 549.617C934.924 535.341 924.451 522.176 912.355 510.578C899.918 498.63 885.07 489.304 872.84 477.247C860.933 465.673 853.637 451.445 849.831 435.347C846.991 423.267 860.455 406.737 871.116 413.087C874.544 415.13 877.751 417.601 880.704 420.651C890.005 430.279 893.388 443.166 901.613 453.543C909.719 463.636 918.748 472.979 923.71 485.102C924.199 486.262 925.883 485.742 925.5 484.5C923.668 477.644 920.447 471.576 916.377 465.67L916.252 465.487C908.303 453.843 901.095 443.285 895.276 430.481Z" fill="#29644D"/>
<g filter="url(#filter8_f_978_18583)">
<rect x="905" y="517.5" width="66" height="66" rx="33" fill="#E1D59C"/>
</g>
<path d="M908.847 525.914H965.837V573.406H908.847V525.914Z" fill="url(#pattern4_978_18583)"/>
<g filter="url(#filter9_f_978_18583)">
<circle cx="937.5" cy="549.5" r="36.9686" transform="rotate(150 937.5 549.5)" fill="url(#paint16_radial_978_18583)"/>
<circle cx="937.5" cy="549.5" r="36.9686" transform="rotate(150 937.5 549.5)" fill="url(#paint17_radial_978_18583)"/>
</g>
<circle cx="937.5" cy="549.5" r="36.9686" transform="rotate(-6.99484 937.5 549.5)" fill="url(#paint18_radial_978_18583)"/>
<circle cx="937.5" cy="549.5" r="36.9686" transform="rotate(-6.99484 937.5 549.5)" fill="url(#paint19_radial_978_18583)"/>
</g>
<defs>
<filter id="filter0_f_978_18583" x="269" y="195.5" width="146" height="146" filterUnits="userSpaceOnUse" color-interpolation-filters="sRGB">
<feFlood flood-opacity="0" result="BackgroundImageFix"/>
<feBlend mode="normal" in="SourceGraphic" in2="BackgroundImageFix" result="shape"/>
<feGaussianBlur stdDeviation="20" result="effect1_foregroundBlur_978_18583"/>
</filter>
<pattern id="pattern0_978_18583" patternContentUnits="objectBoundingBox" width="1" height="1">
<use xlink:href="#image0_978_18583" transform="matrix(0.00144783 0 0 0.00174051 0.0789474 -0.00917432)"/>
</pattern>
<filter id="filter1_f_978_18583" x="300.525" y="226.523" width="81.9492" height="81.9492" filterUnits="userSpaceOnUse" color-interpolation-filters="sRGB">
<feFlood flood-opacity="0" result="BackgroundImageFix"/>
<feBlend mode="normal" in="SourceGraphic" in2="BackgroundImageFix" result="shape"/>
<feGaussianBlur stdDeviation="2" result="effect1_foregroundBlur_978_18583"/>
</filter>
<filter id="filter2_f_978_18583" x="607.953" y="478.272" width="97.2747" height="97.2767" filterUnits="userSpaceOnUse" color-interpolation-filters="sRGB">
<feFlood flood-opacity="0" result="BackgroundImageFix"/>
<feBlend mode="normal" in="SourceGraphic" in2="BackgroundImageFix" result="shape"/>
<feGaussianBlur stdDeviation="12.7157" result="effect1_foregroundBlur_978_18583"/>
</filter>
<pattern id="pattern1_978_18583" patternContentUnits="objectBoundingBox" width="1" height="1">
<use xlink:href="#image1_978_18583" transform="matrix(0.00168119 0 0 0.00178359 -0.330793 -0.0689655)"/>
</pattern>
<filter id="filter3_f_978_18583" x="617.714" y="487.847" width="77.5716" height="78.305" filterUnits="userSpaceOnUse" color-interpolation-filters="sRGB">
<feFlood flood-opacity="0" result="BackgroundImageFix"/>
<feBlend mode="normal" in="SourceGraphic" in2="BackgroundImageFix" result="shape"/>
<feGaussianBlur stdDeviation="1.27157" result="effect1_foregroundBlur_978_18583"/>
</filter>
<filter id="filter4_f_978_18583" x="-12" y="314.5" width="146" height="146" filterUnits="userSpaceOnUse" color-interpolation-filters="sRGB">
<feFlood flood-opacity="0" result="BackgroundImageFix"/>
<feBlend mode="normal" in="SourceGraphic" in2="BackgroundImageFix" result="shape"/>
<feGaussianBlur stdDeviation="20" result="effect1_foregroundBlur_978_18583"/>
</filter>
<pattern id="pattern2_978_18583" patternContentUnits="objectBoundingBox" width="1" height="1">
<use xlink:href="#image0_978_18583" transform="matrix(0.00144783 0 0 0.00174051 0.0789474 -0.00917432)"/>
</pattern>
<filter id="filter5_f_978_18583" x="19.5254" y="345.523" width="81.9492" height="81.9492" filterUnits="userSpaceOnUse" color-interpolation-filters="sRGB">
<feFlood flood-opacity="0" result="BackgroundImageFix"/>
<feBlend mode="normal" in="SourceGraphic" in2="BackgroundImageFix" result="shape"/>
<feGaussianBlur stdDeviation="2" result="effect1_foregroundBlur_978_18583"/>
</filter>
<filter id="filter6_f_978_18583" x="292" y="533.5" width="146" height="146" filterUnits="userSpaceOnUse" color-interpolation-filters="sRGB">
<feFlood flood-opacity="0" result="BackgroundImageFix"/>
<feBlend mode="normal" in="SourceGraphic" in2="BackgroundImageFix" result="shape"/>
<feGaussianBlur stdDeviation="20" result="effect1_foregroundBlur_978_18583"/>
</filter>
<pattern id="pattern3_978_18583" patternContentUnits="objectBoundingBox" width="1" height="1">
<use xlink:href="#image0_978_18583" transform="matrix(0.00144783 0 0 0.00174051 0.0789474 -0.00917432)"/>
</pattern>
<filter id="filter7_f_978_18583" x="323.525" y="564.523" width="81.9492" height="81.9492" filterUnits="userSpaceOnUse" color-interpolation-filters="sRGB">
<feFlood flood-opacity="0" result="BackgroundImageFix"/>
<feBlend mode="normal" in="SourceGraphic" in2="BackgroundImageFix" result="shape"/>
<feGaussianBlur stdDeviation="2" result="effect1_foregroundBlur_978_18583"/>
</filter>
<filter id="filter8_f_978_18583" x="865" y="477.5" width="146" height="146" filterUnits="userSpaceOnUse" color-interpolation-filters="sRGB">
<feFlood flood-opacity="0" result="BackgroundImageFix"/>
<feBlend mode="normal" in="SourceGraphic" in2="BackgroundImageFix" result="shape"/>
<feGaussianBlur stdDeviation="20" result="effect1_foregroundBlur_978_18583"/>
</filter>
<pattern id="pattern4_978_18583" patternContentUnits="objectBoundingBox" width="1" height="1">
<use xlink:href="#image0_978_18583" transform="matrix(0.00144783 0 0 0.00174051 0.0789474 -0.00917432)"/>
</pattern>
<filter id="filter9_f_978_18583" x="896.525" y="508.523" width="81.9492" height="81.9492" filterUnits="userSpaceOnUse" color-interpolation-filters="sRGB">
<feFlood flood-opacity="0" result="BackgroundImageFix"/>
<feBlend mode="normal" in="SourceGraphic" in2="BackgroundImageFix" result="shape"/>
<feGaussianBlur stdDeviation="2" result="effect1_foregroundBlur_978_18583"/>
</filter>
<radialGradient id="paint0_radial_978_18583" cx="0" cy="0" r="1" gradientUnits="userSpaceOnUse" gradientTransform="translate(297.29 261.386) rotate(13.4286) scale(80.1343 4306.78)">
<stop stop-color="#E0E0E0"/>
<stop offset="0.24" stop-color="#13523B" stop-opacity="0.2"/>
<stop offset="1" stop-color="#646464" stop-opacity="0"/>
</radialGradient>
<radialGradient id="paint1_radial_978_18583" cx="0" cy="0" r="1" gradientUnits="userSpaceOnUse" gradientTransform="translate(382.008 307.358) rotate(-128.063) scale(50.4985 3250.11)">
<stop stop-color="#E8E8E8"/>
<stop offset="0.171998" stop-color="white" stop-opacity="0"/>
<stop offset="0.689549" stop-color="#F6F6F6" stop-opacity="0"/>
</radialGradient>
<radialGradient id="paint2_radial_978_18583" cx="0" cy="0" r="1" gradientUnits="userSpaceOnUse" gradientTransform="translate(285.44 262.792) rotate(3.53689) scale(111.58 7181.33)">
<stop stop-color="#E8E8E8"/>
<stop offset="0.127861" stop-color="#13523B" stop-opacity="0"/>
<stop offset="1" stop-color="white" stop-opacity="0"/>
</radialGradient>
<radialGradient id="paint3_radial_978_18583" cx="0" cy="0" r="1" gradientUnits="userSpaceOnUse" gradientTransform="translate(285.44 262.792) rotate(3.53689) scale(111.58 7181.33)">
<stop offset="0.05" stop-color="white" stop-opacity="0.15"/>
<stop offset="1" stop-color="white" stop-opacity="0"/>
</radialGradient>
<radialGradient id="paint4_radial_978_18583" cx="0" cy="0" r="1" gradientUnits="userSpaceOnUse" gradientTransform="translate(-7.11595 30.4732) rotate(13.4938) scale(78.768 4252.36)">
<stop stop-color="#E0E0E0"/>
<stop offset="0.24" stop-color="#13523B" stop-opacity="0.2"/>
<stop offset="1" stop-color="#646464" stop-opacity="0"/>
</radialGradient>
<radialGradient id="paint5_radial_978_18583" cx="0" cy="0" r="1" gradientUnits="userSpaceOnUse" gradientTransform="translate(76.1345 75.8772) rotate(-127.924) scale(49.7791 3199.91)">
<stop stop-color="#E8E8E8"/>
<stop offset="0.171998" stop-color="white" stop-opacity="0"/>
<stop offset="0.689549" stop-color="#F6F6F6" stop-opacity="0"/>
</radialGradient>
<radialGradient id="paint6_radial_978_18583" cx="0" cy="0" r="1" gradientUnits="userSpaceOnUse" gradientTransform="translate(-18.7162 31.9364) rotate(3.57147) scale(109.391 7108.91)">
<stop stop-color="#E8E8E8"/>
<stop offset="0.127861" stop-color="#13523B" stop-opacity="0"/>
<stop offset="1" stop-color="white" stop-opacity="0"/>
</radialGradient>
<radialGradient id="paint7_radial_978_18583" cx="0" cy="0" r="1" gradientUnits="userSpaceOnUse" gradientTransform="translate(-18.7162 31.9364) rotate(3.57147) scale(109.391 7108.91)">
<stop offset="0.05" stop-color="white" stop-opacity="0.15"/>
<stop offset="1" stop-color="white" stop-opacity="0"/>
</radialGradient>
<radialGradient id="paint8_radial_978_18583" cx="0" cy="0" r="1" gradientUnits="userSpaceOnUse" gradientTransform="translate(16.29 380.386) rotate(13.4286) scale(80.1343 4306.78)">
<stop stop-color="#E0E0E0"/>
<stop offset="0.24" stop-color="#13523B" stop-opacity="0.2"/>
<stop offset="1" stop-color="#646464" stop-opacity="0"/>
</radialGradient>
<radialGradient id="paint9_radial_978_18583" cx="0" cy="0" r="1" gradientUnits="userSpaceOnUse" gradientTransform="translate(101.008 426.358) rotate(-128.063) scale(50.4985 3250.11)">
<stop stop-color="#E8E8E8"/>
<stop offset="0.171998" stop-color="white" stop-opacity="0"/>
<stop offset="0.689549" stop-color="#F6F6F6" stop-opacity="0"/>
</radialGradient>
<radialGradient id="paint10_radial_978_18583" cx="0" cy="0" r="1" gradientUnits="userSpaceOnUse" gradientTransform="translate(4.44011 381.792) rotate(3.53689) scale(111.58 7181.33)">
<stop stop-color="#E8E8E8"/>
<stop offset="0.127861" stop-color="#13523B" stop-opacity="0"/>
<stop offset="1" stop-color="white" stop-opacity="0"/>
</radialGradient>
<radialGradient id="paint11_radial_978_18583" cx="0" cy="0" r="1" gradientUnits="userSpaceOnUse" gradientTransform="translate(4.44011 381.792) rotate(3.53689) scale(111.58 7181.33)">
<stop offset="0.05" stop-color="white" stop-opacity="0.15"/>
<stop offset="1" stop-color="white" stop-opacity="0"/>
</radialGradient>
<radialGradient id="paint12_radial_978_18583" cx="0" cy="0" r="1" gradientUnits="userSpaceOnUse" gradientTransform="translate(320.29 599.386) rotate(13.4286) scale(80.1343 4306.78)">
<stop stop-color="#E0E0E0"/>
<stop offset="0.24" stop-color="#13523B" stop-opacity="0.2"/>
<stop offset="1" stop-color="#646464" stop-opacity="0"/>
</radialGradient>
<radialGradient id="paint13_radial_978_18583" cx="0" cy="0" r="1" gradientUnits="userSpaceOnUse" gradientTransform="translate(405.008 645.358) rotate(-128.063) scale(50.4985 3250.11)">
<stop stop-color="#E8E8E8"/>
<stop offset="0.171998" stop-color="white" stop-opacity="0"/>
<stop offset="0.689549" stop-color="#F6F6F6" stop-opacity="0"/>
</radialGradient>
<radialGradient id="paint14_radial_978_18583" cx="0" cy="0" r="1" gradientUnits="userSpaceOnUse" gradientTransform="translate(308.44 600.792) rotate(3.53689) scale(111.58 7181.33)">
<stop stop-color="#E8E8E8"/>
<stop offset="0.127861" stop-color="#13523B" stop-opacity="0"/>
<stop offset="1" stop-color="white" stop-opacity="0"/>
</radialGradient>
<radialGradient id="paint15_radial_978_18583" cx="0" cy="0" r="1" gradientUnits="userSpaceOnUse" gradientTransform="translate(308.44 600.792) rotate(3.53689) scale(111.58 7181.33)">
<stop offset="0.05" stop-color="white" stop-opacity="0.15"/>
<stop offset="1" stop-color="white" stop-opacity="0"/>
</radialGradient>
<radialGradient id="paint16_radial_978_18583" cx="0" cy="0" r="1" gradientUnits="userSpaceOnUse" gradientTransform="translate(893.29 543.386) rotate(13.4286) scale(80.1343 4306.78)">
<stop stop-color="#E0E0E0"/>
<stop offset="0.24" stop-color="#13523B" stop-opacity="0.2"/>
<stop offset="1" stop-color="#646464" stop-opacity="0"/>
</radialGradient>
<radialGradient id="paint17_radial_978_18583" cx="0" cy="0" r="1" gradientUnits="userSpaceOnUse" gradientTransform="translate(978.008 589.358) rotate(-128.063) scale(50.4985 3250.11)">
<stop stop-color="#E8E8E8"/>
<stop offset="0.171998" stop-color="white" stop-opacity="0"/>
<stop offset="0.689549" stop-color="#F6F6F6" stop-opacity="0"/>
</radialGradient>
<radialGradient id="paint18_radial_978_18583" cx="0" cy="0" r="1" gradientUnits="userSpaceOnUse" gradientTransform="translate(881.44 544.792) rotate(3.53689) scale(111.58 7181.33)">
<stop stop-color="#E8E8E8"/>
<stop offset="0.127861" stop-color="#13523B" stop-opacity="0"/>
<stop offset="1" stop-color="white" stop-opacity="0"/>
</radialGradient>
<radialGradient id="paint19_radial_978_18583" cx="0" cy="0" r="1" gradientUnits="userSpaceOnUse" gradientTransform="translate(881.44 544.792) rotate(3.53689) scale(111.58 7181.33)">
<stop offset="0.05" stop-color="white" stop-opacity="0.15"/>
<stop offset="1" stop-color="white" stop-opacity="0"/>
</radialGradient>
<clipPath id="clip0_978_18583">
<rect width="1058" height="792" fill="white"/>
</clipPath>

</defs>
</svg>
