<svg width="649" height="188" viewBox="0 0 649 188" fill="none" xmlns="http://www.w3.org/2000/svg">
<path d="M643.913 112.25C635.576 96.0497 616.81 85.4509 588.276 80.7116C574.151 77.8393 564.353 75.599 557.478 73.6745C548.338 71.1469 540.66 67.6714 534.759 63.3917C529.63 59.4853 527.138 53.7695 527.138 45.9568C527.224 35.7027 530.862 27.8039 538.254 21.8008C545.846 15.5679 554.584 12.1498 564.955 11.403C581.973 10.2254 595.094 14.2753 603.89 23.4093C613.029 32.8878 618.845 42.51 621.222 51.9886L624.145 63.6502L638.756 34.5251L638.326 32.8879C636.664 26.5401 631.336 20.1636 622.025 13.4137C613.287 7.00843 603.001 2.92974 591.484 1.32126C585.267 0.430842 579.452 0 573.693 0C562.663 0 551.92 1.49361 541.72 4.4808C528.055 8.38713 517.368 15.3381 509.862 25.2188C504.018 33.2612 500.924 42.5101 500.666 52.7642C500.551 57.762 501.267 62.8459 502.872 67.9299C506.711 79.1032 513.988 87.5764 524.273 92.9764C530.518 96.7391 539.113 99.9273 549.742 102.426C554.555 103.633 559.712 104.753 566.388 106.074C572.089 107.28 576.529 108.257 580.855 109.32C590.539 111.474 599.449 114.404 607.327 118.08C614.805 121.556 619.847 125.405 622.769 129.828C625.52 134.05 626.752 139.249 626.465 145.338C626.293 149.647 624.116 154.501 619.876 160.102C615.493 165.732 609.247 169.638 600.681 172.051C592 174.636 582.403 175.928 572.003 175.928C555.701 176.359 542.265 172.97 532.094 165.789C522.182 158.867 516.881 146.688 515.907 128.507L515.42 119.114L494.22 138.33L494.793 140.886C496.941 150.365 501.411 158.522 508.086 165.071H508.115C523.786 180.208 545.273 187.877 572.003 187.877C590.797 187.877 607.242 184.143 620.907 176.733C633.714 169.696 642.194 159.212 646.147 145.539C647.351 141.288 648.038 136.722 648.181 131.953C648.296 124.945 646.921 118.31 643.97 112.135L643.913 112.25Z" fill="#51886E"/>
<path d="M70.3598 175.934L29.4485 176.049L29.649 23.5588C30.1361 9.16861 21.8278 2.59103 9.70908 2.59103L0.770479 2.50487L0.512634 185.815H143.702V159.189L138.431 162.032C120.897 171.511 87.0624 176.193 70.3312 175.963L70.3598 175.934Z" fill="#51886E"/>
<path d="M227.935 2.412L154.077 185.665H178.773V182.103C178.945 155.85 181.036 145.022 182.784 140.57L182.841 140.397C182.955 140.081 183.528 138.588 186.078 132.269H269.276L286.007 172.998C289.159 180.667 296.608 185.665 304.887 185.665H320.759L251.857 18.0948C247.961 8.58744 238.736 2.412 228.479 2.412H227.935ZM189.975 122.388C192.467 116.213 195.131 109.606 197.968 102.483C200.718 95.5894 203.64 88.2651 206.792 80.4811L211.118 69.7962C215.616 58.6804 219.684 48.5699 223.351 39.436C224.898 35.5583 226.216 32.3126 227.247 29.6701L265.265 122.388H190.003H189.975Z" fill="#51886E"/>
<path d="M472.689 111.839C468.335 104.773 462.834 99.2296 456.417 95.4094C450.773 91.8478 444.814 89.1765 438.597 87.367C446.991 83.2596 453.695 77.4288 458.623 69.8747C462.576 63.4694 464.668 56.2025 464.782 48.1601C464.668 40.29 462.548 33.023 458.479 26.5316C454.411 20.1551 449.369 15.1573 443.41 11.5957C437.393 8.09146 431.52 5.65001 425.418 4.15642C420.06 2.8926 414.789 2.28942 409.346 2.28942H336.691L336.318 185.657L418.972 185.772C431.635 185.772 444.212 182.153 456.417 175.001C462.805 170.98 468.277 165.494 472.718 158.657C477.044 151.534 479.221 143.607 479.221 135.162C479.221 126.718 477.015 118.876 472.689 111.868V111.839ZM437.565 48.6771C437.565 57.8684 435.445 65.9396 431.291 72.6895C428.884 76.6246 425.561 79.7554 421.12 82.2543C417.683 84.0638 414.044 84.983 410.291 84.983H363.764V11.567C373.763 11.567 380.438 11.567 383.533 11.4521C390.809 11.4521 397.714 11.4521 405.02 11.567L408.286 11.4521C414.674 11.4521 420.433 13.118 425.876 16.536C433.726 23.2572 437.565 33.7986 437.565 48.7058V48.6771ZM363.764 94.2605C385.882 94.2605 401.037 94.318 409.145 94.3467C412.182 94.3467 414.245 94.3754 415.247 94.3467C420.146 94.4616 424.243 95.0073 427.481 95.9839C437.193 98.77 443.897 104.802 447.965 114.481C450.715 120.657 452.119 128.01 452.119 136.311C452.119 140.648 451.575 145.043 450.457 149.351C447.736 160.783 441.605 168.768 431.692 173.795C430.689 174.283 429.515 174.685 428.369 175.058L428.054 175.173C425.991 175.547 423.126 175.776 419.201 175.891H363.764V94.2318V94.2605Z" fill="#51886E"/>
</svg>
