<svg width="83" height="48" viewBox="0 0 83 48" fill="none" xmlns="http://www.w3.org/2000/svg">
<g clip-path="url(#clip0_843_13408)">
<path d="M81.6799 38.4249C80.626 36.3769 78.2537 35.037 74.6463 34.4379C72.8608 34.0748 71.6221 33.7915 70.7529 33.5482C69.5975 33.2287 68.6268 32.7893 67.8808 32.2483C67.2324 31.7545 66.9173 31.0319 66.9173 30.0442C66.9282 28.7479 67.3882 27.7493 68.3226 26.9904C69.2824 26.2025 70.3871 25.7703 71.6982 25.6759C73.8495 25.5271 75.5083 26.0391 76.6202 27.1938C77.7756 28.392 78.5108 29.6085 78.8114 30.8067L79.1809 32.281L81.028 28.599L80.9737 28.392C80.7636 27.5895 80.0899 26.7834 78.9128 25.9301C77.8082 25.1204 76.5079 24.6048 75.052 24.4014C74.266 24.2888 73.5308 24.2344 72.8028 24.2344C71.4084 24.2344 70.0502 24.4232 68.7609 24.8008C67.0332 25.2947 65.6823 26.1734 64.7334 27.4225C63.9945 28.4392 63.6034 29.6085 63.5708 30.9048C63.5563 31.5366 63.6468 32.1793 63.8497 32.822C64.335 34.2345 65.2549 35.3057 66.5552 35.9884C67.3447 36.464 68.4313 36.8671 69.775 37.183C70.3834 37.3355 71.0354 37.4771 71.8792 37.6442C72.6 37.7967 73.1614 37.9201 73.7083 38.0545C74.9325 38.3268 76.0588 38.6972 77.0548 39.162C78.0001 39.6013 78.6376 40.0879 79.007 40.6471C79.3547 41.1809 79.5104 41.8381 79.4742 42.6079C79.4525 43.1526 79.1772 43.7663 78.6412 44.4743C78.0871 45.186 77.2975 45.6799 76.2146 45.9849C75.1172 46.3117 73.9039 46.4751 72.5891 46.4751C70.5283 46.5296 68.8297 46.1011 67.5439 45.1933C66.2908 44.3182 65.6207 42.7786 65.4976 40.4801L65.436 39.2927L62.7559 41.7219L62.8283 42.0451C63.0999 43.2434 63.6649 44.2746 64.5088 45.1025H64.5124C66.4936 47.0161 69.21 47.9856 72.5891 47.9856C74.965 47.9856 77.044 47.5136 78.7716 46.5768C80.3905 45.6871 81.4626 44.3618 81.9624 42.6333C82.1145 42.0959 82.2015 41.5186 82.2196 40.9158C82.2341 40.0298 82.0602 39.191 81.6872 38.4103L81.6799 38.4249Z" fill="#51886E"/>
<path d="M9.17181 46.4756L3.99984 46.4901L4.0252 27.2124C4.08677 25.3932 3.03644 24.5617 1.5044 24.5617L0.374393 24.5508L0.341797 47.7247H18.4437V44.3586L17.7773 44.7181C15.5607 45.9164 11.2833 46.5083 9.16819 46.4792L9.17181 46.4756Z" fill="#51886E"/>
<path d="M29.0929 24.5391L19.7559 47.7057H22.8779V47.2555C22.8996 43.9366 23.164 42.5677 23.3849 42.0048L23.3922 41.983C23.4067 41.9431 23.4791 41.7543 23.8014 40.9554H34.3192L36.4344 46.1044C36.8328 47.0739 37.7745 47.7057 38.8212 47.7057H40.8277L32.1172 26.5217C31.6246 25.3198 30.4584 24.5391 29.1617 24.5391H29.0929ZM24.294 39.7063C24.6091 38.9256 24.9459 38.0905 25.3045 37.1899C25.6522 36.3185 26.0216 35.3925 26.42 34.4085L26.9669 33.0577C27.5355 31.6525 28.0498 30.3743 28.5134 29.2196C28.709 28.7294 28.8756 28.3191 29.006 27.985L33.8122 39.7063H24.2976H24.294Z" fill="#51886E"/>
<path d="M60.0348 38.3726C59.4843 37.4793 58.7889 36.7785 57.9776 36.2956C57.2641 35.8453 56.5108 35.5076 55.7249 35.2789C56.786 34.7596 57.6336 34.0225 58.2565 33.0675C58.7563 32.2578 59.0207 31.3391 59.0352 30.3224C59.0207 29.3274 58.7527 28.4088 58.2384 27.5881C57.7241 26.782 57.0867 26.1502 56.3333 25.6999C55.5727 25.2569 54.8303 24.9483 54.0588 24.7595C53.3815 24.5997 52.7151 24.5234 52.027 24.5234H42.842L42.7949 47.7046L53.2439 47.7191C54.8447 47.7191 56.4347 47.2616 57.9776 46.3575C58.7853 45.8491 59.4771 45.1556 60.0385 44.2914C60.5853 43.3908 60.8606 42.3886 60.8606 41.3211C60.8606 40.2535 60.5817 39.2622 60.0348 38.3762V38.3726ZM55.5945 30.3877C55.5945 31.5497 55.3264 32.57 54.8013 33.4234C54.4971 33.9208 54.0769 34.3166 53.5155 34.6325C53.0809 34.8613 52.6209 34.9775 52.1465 34.9775H46.2646V25.6963C47.5287 25.6963 48.3725 25.6963 48.7637 25.6818C49.6836 25.6818 50.5565 25.6818 51.4801 25.6963L51.893 25.6818C52.7006 25.6818 53.4286 25.8924 54.1168 26.3245C55.1091 27.1742 55.5945 28.5068 55.5945 30.3914V30.3877ZM46.2646 36.1503C49.0607 36.1503 50.9766 36.1576 52.0016 36.1612C52.3855 36.1612 52.6463 36.1649 52.7731 36.1612C53.3924 36.1758 53.9103 36.2448 54.3196 36.3682C55.5474 36.7204 56.3949 37.483 56.9092 38.7067C57.2569 39.4874 57.4344 40.4169 57.4344 41.4663C57.4344 42.0146 57.3655 42.5702 57.2243 43.1149C56.8802 44.5601 56.1051 45.5695 54.852 46.205C54.7252 46.2667 54.5767 46.3175 54.4319 46.3647L54.392 46.3793C54.1312 46.4265 53.7691 46.4555 53.2729 46.47H46.2646V36.1467V36.1503Z" fill="#51886E"/>
<path d="M40.7861 2.9043C38.3378 1.00522 35.4584 0.0429688 32.2314 0.0429688C29.0043 0.0429688 26.23 1.00522 23.778 2.9043C21.6556 4.55647 20.33 6.93124 19.8447 9.96324C19.7686 10.3953 19.7324 10.8747 19.7324 11.4302C19.7324 12.1528 19.7795 12.7955 19.8737 13.3947C20.3771 16.3359 21.6846 18.6489 23.7635 20.2648C26.2083 22.1748 29.0767 23.1406 32.2929 23.1406C35.5091 23.1406 38.3631 22.1748 40.8042 20.2684C42.7057 18.8051 43.9697 16.728 44.5564 14.0991C44.7375 13.2821 44.8244 12.6684 44.8244 12.2291C44.8244 8.12588 43.4663 4.98858 40.7897 2.90794L40.7861 2.9043ZM26.2227 19.15C24.4806 17.4833 23.5245 14.9306 23.3796 11.5573C23.4846 8.18761 24.4227 5.63855 26.1793 3.97549C27.9503 2.29427 29.9532 1.47001 32.2929 1.45548C34.6 1.45548 36.6572 2.2979 38.4102 3.96097C40.1668 5.62766 41.1048 8.18398 41.1918 11.5573C41.0469 14.9197 40.0907 17.4688 38.3486 19.1355C36.5703 20.8203 34.5711 21.641 32.2314 21.641C29.8917 21.641 27.9612 20.8022 26.2227 19.1536V19.15Z" fill="#01563E"/>
<path d="M62.247 2.9043C59.7987 1.00522 56.9193 0.0429688 53.6923 0.0429688C50.4652 0.0429688 47.6909 1.00522 45.2389 2.9043C43.1165 4.55647 41.791 6.93124 41.3056 9.96324C41.2296 10.3953 41.1934 10.8747 41.1934 11.4302C41.1934 12.1564 41.2404 12.7955 41.3346 13.3947C41.838 16.3359 43.1455 18.6489 45.2245 20.2648C47.6692 22.1711 50.5377 23.1406 53.7539 23.1406C56.97 23.1406 59.824 22.1748 62.2652 20.2684C64.1666 18.8051 65.4306 16.728 66.0174 14.0991C66.1985 13.2821 66.2854 12.6684 66.2854 12.2291C66.2854 8.12588 64.9272 4.98858 62.2507 2.90794L62.247 2.9043ZM44.8369 11.5573C44.942 8.18761 45.88 5.63855 47.6366 3.97549C49.4077 2.29427 51.4105 1.47001 53.7502 1.45548C56.0573 1.45548 58.1145 2.29791 59.8675 3.96097C61.6241 5.62766 62.5621 8.18398 62.6491 11.5573C62.5042 14.9197 61.548 17.4688 59.8059 19.1355C58.0276 20.8203 56.0284 21.641 53.6887 21.641C51.349 21.641 49.4185 20.8022 47.6801 19.1536C45.938 17.487 44.9818 14.9343 44.8369 11.5609V11.5573Z" fill="#01563E"/>
<path d="M62.3691 0V0.497466C62.3691 0.976776 62.7567 1.36894 63.2384 1.36894H70.5364L70.511 20.1601C70.511 21.6162 71.6845 22.7963 73.1368 22.7963H74.1763L74.1473 1.36894H81.4453C81.9234 1.36894 82.3146 0.980407 82.3146 0.497466V0H62.3728H62.3691Z" fill="#01563E"/>
<path d="M23.8414 25.5777C23.8414 25.5777 22.226 25.6794 20.1942 22.7999C18.8722 20.9262 17.8364 18.5333 16.9635 16.7759C16.0037 14.8405 14.4753 13.7656 13.2692 13.5151C14.5296 12.8833 15.6307 11.9719 16.5542 10.799C17.6408 9.41554 18.1913 7.75974 18.1913 5.86792C18.1913 4.10682 17.5539 2.66889 16.2971 1.5977C15.0548 0.537408 13.3381 0 11.1976 0H0.390018L0.357422 22.7926H1.2158C2.80216 22.7926 4.08791 21.5036 4.08791 19.9132V18.1339C4.08791 17.168 4.5515 16.3474 5.2324 15.7119C6.59783 14.4338 8.60433 14.4338 9.72709 14.7787C11.6322 15.367 13.1606 18.0068 13.6894 18.9654C14.3739 20.2182 15.6089 23.3918 17.4525 25.6758C18.539 27.0229 21.5958 27.9779 23.845 25.5741L23.8414 25.5777ZM11.643 11.8121C11.1613 12.226 10.6724 12.6509 10.1183 12.9668C8.83612 13.7039 7.14473 13.7293 5.81914 14.3757C4.6674 14.9385 4.20743 15.81 4.08791 16.0206V0.875104H9.93354C11.212 0.875104 12.2262 1.33626 13.0338 2.28762C13.8415 3.23897 14.2508 4.44088 14.2508 5.86792C14.2508 6.87011 14.1312 7.77063 13.8994 8.5477C13.6676 9.31387 13.3525 9.94931 12.965 10.4395C12.5666 10.9406 12.1211 11.4018 11.643 11.8121Z" fill="#01563E"/>
</g>
<defs>
<clipPath id="clip0_843_13408">
<rect width="81.9692" height="48" fill="white" transform="translate(0.341797)"/>
</clipPath>
</defs>
</svg>
