<svg width="383" height="687" viewBox="0 0 383 687" fill="none" xmlns="http://www.w3.org/2000/svg">
<path d="M174.079 671.682C173.837 671.624 173.702 671.365 173.811 671.173C189.611 643.345 191.658 614.293 185.386 584.61C182.195 569.591 177.788 554.148 169.592 540.292C165.454 533.255 160.423 526.661 155.809 519.97C154.692 518.374 153.653 516.766 152.666 515.149C145.8 503.903 144.217 490.891 146.128 478.886C149.653 456.745 150.492 434.46 148.295 412.449C145.484 384.286 138.479 356.627 129.945 329.323C125.711 315.591 121.206 301.921 116.737 288.356L116.535 287.743C112.587 275.958 107.962 263.977 105.96 251.739C102.759 232.005 105.838 212.56 111.53 193.426C112.757 189.305 118.691 188.46 122.234 191.738V191.738C132.769 200.935 145.344 208.718 158.609 215.516C162.053 217.314 165.516 219.084 168.985 220.841C181.828 227.345 189.176 242.383 192.077 255.377V255.377C193.996 263.752 197.444 271.773 201.727 279.599C210.332 295.361 222.667 309.785 233.752 324.5C234.394 325.409 236.78 325.325 235.878 324.123C226.408 310.092 216.66 296.125 209.572 281.188C206.048 273.773 202.941 266.262 201.363 258.395C200.505 254.478 200.202 250.432 200.219 246.429V246.429C200.31 241.849 205.979 239.75 210.392 242.282C218.042 246.672 225.513 251.354 232.556 256.56C278.037 289.749 309.305 334.237 328.033 380.345C338.589 406.591 346.288 434.089 349.036 461.679C349.167 463.648 354.348 465.385 354.293 462.81C352.855 414.451 338.576 367.31 310.677 324.156C302.954 312.287 294.406 300.98 284.926 290.263C280.854 285.659 283.759 278.513 289.846 278.891V278.891C302.082 279.694 314.041 284.209 324.431 288.97C346.507 299.132 364.535 314.234 377.94 331.115C379.403 333.01 384.354 332.918 382.469 330.298C369.437 312.39 352.296 296.023 330.529 284.26C319.776 278.525 307.632 273.113 294.888 270.545C288.357 269.239 281.454 268.96 274.691 268.65C271.627 268.538 268.564 268.426 265.657 267.925V267.925C263.426 267.619 261.362 266.491 259.657 264.984C239.033 246.769 215.229 230.822 188.473 217.401L188.218 217.274C173.82 210.093 159.254 202.829 146.212 194.049C139.563 189.595 133.488 184.655 128.404 179.132V179.132C122.723 172.866 122.186 164.365 124.988 157.34C127.799 150.292 130.671 143.297 133.422 136.33C142.04 114.082 150.723 88.9896 151.86 64.5091C152.08 59.7766 151.687 54.3765 151.365 49.5947V49.5947C151.15 46.3989 151.655 43.8297 152.31 40.7732C152.815 38.4161 153.091 36.0011 152.883 33.4822C152.324 26.3199 149.517 19.209 147.388 12.2937C145.444 6.27646 140.683 1.6191 132.443 0.592597C125.895 -0.356214 116.661 2.02378 113.748 7.16985C108.809 16.1973 118.645 28.3793 122.493 36.6597C128.114 48.8801 126.748 63.4289 124.376 76.0942C118.841 105.373 103.213 133.114 92.82 161.521C81.3469 192.297 72.4621 223.529 80.7243 255.366C85.7517 274.899 94.9497 293.463 103.592 312.156C112.454 331.033 119.845 350.017 124.675 369.831V369.831C125.112 371 125.899 372.115 126.194 373.309C127.221 377.477 128.231 381.637 129.104 385.739C130.819 394.095 132.107 402.467 132.968 410.854C133.213 413.237 130.536 414.628 128.866 416.257V416.257C121.307 422.717 116.543 430.998 111.756 438.814C111.136 439.857 110.527 440.901 109.929 441.948C105.073 450.448 97.5024 457.558 87.5418 460.552V460.552C81.963 462.201 76.4649 464.066 71.1285 466.364C60.0388 471.057 50.0707 477.136 41.2021 484.136C24.6127 497.164 12.7874 512.025 4.69469 529.195C3.82981 530.925 -6.02398 556.023 9.14021 530.985C18.6733 515.245 32.4499 500.753 48.6675 488.753C57.6574 482.078 67.2485 476.204 78.1006 471.684C83.7524 469.331 89.7336 467.47 95.5887 465.647L95.9043 465.549V465.549C96.8343 465.333 97.7877 466.226 97.4294 467.043C90.3685 483.135 85.3601 499.64 78.7391 515.877C77.8564 517.964 82.8225 520.339 84.2208 518.015C93.4532 501.874 101.412 485.558 109.289 469.027C113.08 460.971 117.23 453.068 122.017 445.252V445.252C125.22 439.959 134.244 443.205 133.964 449.521C132.577 480.743 125.953 511.855 115.448 542.165C106.588 567.393 94.6004 591.937 79.4642 615.33C63.5796 639.955 45.107 664.123 22.1611 685.214C21.7263 685.667 22.8837 686.34 23.359 685.994C44.4716 667.682 65.1446 649.001 81.587 627.892C82.613 626.596 83.4594 625.224 84.4852 623.927C84.4859 623.927 84.4874 623.927 84.4878 623.928V623.928V623.928C84.8128 624.798 84.9393 625.704 85.1635 626.592C85.9205 629.591 86.7694 632.57 87.6183 635.548C89.7699 642.928 92.0603 650.276 91.8663 657.849C91.8889 658.314 92.9658 658.77 93.1808 658.132C94.4514 651.015 94.2104 643.896 92.6375 636.852C91.9004 633.259 91.0649 629.807 90.3277 626.215V626.215C89.165 620.722 90.8368 615.304 93.8479 610.884C104.042 595.921 112.9 580.47 120.333 564.553C124.28 555.977 127.901 547.262 131.153 538.451C134.604 529.102 150.694 527.902 156.746 537.042V537.042C165.776 550.705 170.797 565.77 174.445 580.8C181.656 609.823 181.684 641.456 168.743 669.514C167.816 671.618 172.516 673.989 174.301 672.168C174.46 672.006 174.326 671.742 174.079 671.682V671.682Z" fill="#E5732E"/>
</svg>
