<svg  viewBox="0 0 47 40" fill="none" xmlns="http://www.w3.org/2000/svg">
<path d="M42.6107 1.63499C36.3697 5.35083 32.0009 11.8907 32.6251 16.7957C33.7172 23.7814 44.4829 19.1739 46.6672 28.9837C47.7595 34.1858 44.1708 38.7936 39.0221 39.6853C32.313 40.8744 27.1642 35.6721 25.916 28.6864C23.2635 15.6066 32.6251 4.7563 41.5185 0L42.6107 1.63499ZM0.951984 28.6864C-1.70045 15.6066 7.81707 4.7563 16.5544 0.148641L17.6466 1.78361C11.5617 5.35083 7.03696 12.0394 7.66106 16.9443C8.75323 23.9301 19.519 19.3224 21.7033 28.9837C22.7954 34.1858 19.2069 38.9421 14.0581 39.834C7.349 41.023 2.20019 35.6721 0.951984 28.6864Z" fill="white" fill-opacity="0.6"/>
</svg>
