<?xml version="1.0" encoding="UTF-8"?>
<svg xmlns="http://www.w3.org/2000/svg" version="1.1" viewBox="0 0 328.73 332.79">
  <defs>
    <style>
      .cls-1 {
        fill: #21523d;
      }
    </style>
  </defs>
  <!-- Generator: Adobe Illustrator 28.7.1, SVG Export Plug-In . SVG Version: 1.2.0 Build 142)  -->
  <g>
    <g id="Layer_1">
      <path class="cls-1" d="M312.46,264.71l1.67-2.52,2.51,1.68-1.67,2.52-2.51-1.68Z"/>
      <path class="cls-1" d="M271.46,278.76s-14.43,1.89-29.07-22.29c-9.41-15.35-25.31-47.73-34.1-63.92-7.95-14.93-19.87-24.18-29.49-26.07,10.04-5.05,18.83-12.4,26.15-21.87,8.58-11.14,12.97-24.39,12.97-39.53,0-14.09-5.02-25.65-15.06-34.27-10.04-8.41-23.64-12.83-40.79-12.83h-86.39v188.81h6.69c12.76,0,23.01-10.3,23.01-23.13v-20.4c0-7.78,3.76-14.3,9.2-19.34,10.88-10.3,26.98-10.3,35.98-7.57,15.27,4.63,25.52,19.13,32.21,32.17,7.53,14.51,26.15,50.67,38.07,70.02,7.32,11.77,32.63,19.34,50.62,0v.21ZM165.83,152.61c-3.76,3.36-7.74,6.73-12.13,9.25-10.25,5.89-23.85,6.1-34.3,11.35-9.2,4.42-12.97,11.56-13.8,13.25v-121.32h46.65c10.25,0,18.41,3.78,24.68,11.35,6.49,7.57,9.62,17.24,9.62,28.59,0,7.99-1.05,15.14-2.72,21.45-1.88,6.1-4.39,11.14-7.53,15.14-3.14,3.99-6.69,7.78-10.67,10.93h.21Z"/>
    </g>
  </g>
</svg>