<svg width="372" height="405" viewBox="0 0 372 405" fill="none" xmlns="http://www.w3.org/2000/svg">
<g clip-path="url(#clip0_952_18391)">
<path d="M14.7595 11.2012C16.0532 8.70887 19.3004 9.33973 19.4584 12.3299V12.3299C19.5107 13.0072 19.6341 13.6726 19.9046 14.3022C23.3529 22.3286 24.7691 31.6323 28.5962 39.6917C33.3153 49.773 39.8136 58.6128 46.9654 66.3991C61.1485 81.8105 78.7369 92.0849 96.5867 100.339C105.296 104.286 114.247 107.505 123.375 110.036C126.392 110.873 129.484 111.361 132.587 111.493C134.983 111.595 137.401 111.636 139.8 111.541C147.201 111.196 154.441 111.066 161.777 110.95C177.004 110.927 192.16 109.538 207.425 109.807C231.105 110.197 248.926 124.174 264.608 143.584C265.068 144.178 264.445 145.076 263.801 144.52C255.059 135.482 245.7 127.28 234.803 121.917C222.421 115.845 209.362 115.752 196.187 116.073C181.94 116.477 174.536 119.391 160.257 119.201V119.201C157.961 119.163 157.337 121.969 159.207 123.377C160.222 124.141 161.185 124.953 162.038 125.808C172.088 134.669 175.866 143.611 181.265 155.364C183.005 159.152 185.32 162.7 186.948 166.536C188.768 170.825 190.299 175.732 192.994 178.4C199.292 184.643 206.939 187.875 215.098 189.33C234.374 192.862 254.677 189.874 274.115 189.633C289.615 189.394 302.868 193.806 315.903 203.516C328.92 213.142 340.026 225.985 353.098 235.732C353.391 235.965 353.188 236.558 352.824 236.346C339.157 228.252 327.16 217.002 313.937 208C306.612 203.076 298.966 199.191 290.77 197.187C281.041 194.674 270.507 195.873 260.672 196.232C238.959 197.196 212.414 199.645 193.451 186.762L193.673 187.191C195.403 190.531 197.127 193.861 198.689 197.286C203.238 207.023 207.241 217.08 212.323 226.369C223.899 247.576 243.765 254.447 263.948 259.419L279.244 262.821C282.517 263.549 282.501 268.283 279.224 268.76L278.193 268.911C277.75 268.975 277.246 268.79 276.868 268.532V268.532C276.454 268.249 276.005 267.92 275.519 267.828C271.08 266.992 266.792 266.208 262.839 265.288C245.549 261.279 228.371 260.812 215.918 245.38C204.675 231.385 197.767 216.918 189.616 191.151C191.968 199.628 193.2 208.358 192.379 217.3C190.172 242.01 185.483 264.397 198.805 286.065C204.733 295.955 210.958 304.516 215.59 315.398C220.376 326.51 223.344 338.332 225.932 350.225C226.084 351.109 225.086 351.522 224.792 350.666C218.149 328.181 208.886 309.336 195.791 291.163C185.84 277.355 182.85 259.261 184.286 241.762C185.349 229.712 187.973 217.921 187.251 205.772C186.477 192.195 179.48 178.8 174.097 167.075C172.115 162.732 170.193 158.326 168.162 153.987C166.811 151.102 165.14 148.373 163.212 145.83C156.565 137.062 149.528 128.974 139.009 125.274C128.658 121.618 117.605 121.879 107.182 118.5C98.6026 115.707 90.2052 112.255 82.0002 108.304V108.304C76.9658 105.852 70.6368 111.02 72.222 116.405C72.7917 118.34 73.3459 120.28 73.8949 122.219C76.3059 130.785 79.0121 137.399 84.4492 143.804C88.9383 148.891 93.5483 153.755 97.8536 159.134C105.907 169.301 113.658 181.609 117.705 194.688C117.972 195.412 117.086 195.81 116.829 195.247C110.02 183.681 103.382 172.827 94.8707 162.929C87.3572 154.277 78.056 146.816 72.722 135.912C67.3184 124.758 65.752 111.226 60.6649 99.7036V99.7036C58.6734 95.0781 55.2775 91.2227 51.4665 87.924C46.8811 83.9551 42.4442 79.6777 38.0914 75.0658C30.0053 66.3256 18.4638 54.8025 14.4454 41.5653C13.3699 38.0224 12.4786 34.3958 11.9313 30.7491C10.932 24.0905 11.997 16.8355 14.7595 11.2012Z" fill="#000000"/>
<path d="M325.865 293.753C322.83 286.332 319.508 281.82 313.79 277.138C305.418 269.046 289.07 264.385 279.664 262.765C277.629 262.414 275.721 263.565 274.968 265.466C274.42 266.848 274.933 267.609 276.384 268.017C276.46 268.038 276.518 268.069 276.554 268.115C285.524 278.743 285.5 295.825 289.706 309.02C292.985 319.148 297.479 328.665 304.284 336.259C313.354 346.361 324.306 354.05 333.988 363.488C343.876 373.119 352.805 383.741 360.34 395.946C360.832 396.772 361.922 396.013 361.411 395.103C355.075 382.958 347.359 371.758 338.447 361.892C329.284 351.727 318.345 343.794 309.334 333.537C300.562 323.691 295.187 311.588 292.383 297.892C290.202 287.181 301.91 273.759 310.413 280.72C312.067 282.074 313.641 283.617 315.128 285.391C321.981 293.581 324.473 304.544 330.533 313.372C336.506 321.959 343.158 329.906 346.813 340.22C347.174 341.206 348.414 340.764 348.132 339.707C346.783 333.875 344.409 328.712 341.411 323.688L341.319 323.533C335.462 313.627 330.152 304.645 325.865 293.753Z" fill="#000000"/>
</g>
<defs>
<clipPath id="clip0_952_18391">
<rect width="372" height="405" fill="white"/>
</clipPath>
</defs>
</svg>
