<svg width="649" height="214" viewBox="0 0 649 214" fill="none" xmlns="http://www.w3.org/2000/svg">
<path d="M319.798 22.9718C300.431 7.94963 277.655 0.338035 252.129 0.338035C226.602 0.338035 204.657 7.94963 185.261 22.9718C168.472 36.0407 157.987 54.8256 154.148 78.8093C153.546 82.2273 153.26 86.0187 153.26 90.4134C153.26 96.1292 153.632 101.213 154.377 105.953C158.359 129.218 168.702 147.515 185.146 160.296C204.485 175.405 227.175 183.045 252.616 183.045C278.056 183.045 300.632 175.405 319.942 160.325C334.983 148.75 344.981 132.32 349.622 111.525C351.055 105.062 351.743 100.208 351.743 96.7324C351.743 64.2754 340.999 39.4588 319.827 23.0005L319.798 22.9718ZM204.599 151.478C190.819 138.295 183.256 118.102 182.11 91.4187C182.94 64.7637 190.361 44.6002 204.256 31.445C218.265 18.1463 234.108 11.6262 252.616 11.5113C270.865 11.5113 287.138 18.175 301.004 31.3302C314.899 44.514 322.32 64.735 323.007 91.4187C321.861 118.016 314.298 138.18 300.517 151.364C286.451 164.691 270.636 171.182 252.129 171.182C233.621 171.182 218.351 164.547 204.599 151.507V151.478Z" fill="#EFE7E0"/>
<path d="M489.555 22.9718C470.188 7.94963 447.412 0.338035 421.885 0.338035C396.359 0.338035 374.413 7.94963 355.018 22.9718C338.229 36.0407 327.743 54.8256 323.904 78.8093C323.303 82.2273 323.016 86.0188 323.016 90.4134C323.016 96.158 323.389 101.213 324.133 105.953C328.116 129.218 338.458 147.515 354.903 160.296C374.241 175.376 396.932 183.045 422.372 183.045C447.813 183.045 470.389 175.405 489.698 160.325C504.739 148.75 514.738 132.32 519.379 111.525C520.811 105.062 521.499 100.208 521.499 96.7324C521.499 64.2754 510.756 39.4588 489.584 23.0005L489.555 22.9718ZM351.837 91.4187C352.668 64.7637 360.088 44.6002 373.983 31.445C387.993 18.1463 403.836 11.6262 422.344 11.5113C440.593 11.5113 456.866 18.175 470.732 31.3302C484.627 44.514 492.047 64.735 492.735 91.4187C491.589 118.016 484.026 138.18 470.245 151.364C456.178 164.691 440.364 171.182 421.856 171.182C403.349 171.182 388.079 164.547 374.327 151.507C360.547 138.323 352.983 118.131 351.837 91.4474V91.4187Z" fill="#EFE7E0"/>
<path d="M490.525 0V3.93505C490.525 7.72649 493.591 10.8286 497.401 10.8286H555.13L554.929 159.47C554.929 170.988 564.211 180.323 575.7 180.323H583.922L583.693 10.8286H641.422C645.203 10.8286 648.297 7.75521 648.297 3.93505V0H490.554H490.525Z" fill="#EFE7E0"/>
<path d="M185.763 202.325C185.763 202.325 172.985 203.129 156.913 180.352C146.456 165.531 138.262 146.602 131.357 132.7C123.765 117.391 111.675 108.889 102.135 106.907C112.105 101.909 120.814 94.6997 128.12 85.4222C136.715 74.4787 141.07 61.3811 141.07 46.4164C141.07 32.4857 136.027 21.1114 126.086 12.6381C116.259 4.251 102.679 0 85.7476 0H0.257844L0 180.294H6.7899C19.3383 180.294 29.5089 170.098 29.5089 157.517V143.443C29.5089 135.802 33.176 129.311 38.5621 124.284C49.3629 114.174 65.2346 114.174 74.1159 116.903C89.1855 121.556 101.276 142.437 105.458 150.02C110.873 159.93 120.643 185.034 135.225 203.1C143.82 213.757 168 221.311 185.791 202.296L185.763 202.325ZM89.2715 93.4359C85.4611 96.7104 81.5934 100.071 77.2101 102.57C67.0682 108.401 53.6889 108.602 43.2033 113.714C34.0928 118.166 30.4543 125.06 29.5089 126.726V6.92224H75.7489C85.8622 6.92224 93.884 10.5701 100.273 18.0955C106.662 25.6209 109.899 35.1282 109.899 46.4164C109.899 54.3439 108.954 61.4672 107.12 67.614C105.286 73.6745 102.794 78.701 99.7285 82.5786C96.577 86.5424 93.0532 90.1902 89.2715 93.4359Z" fill="#EFE7E0"/>
</svg>
