<svg width="875" height="319" viewBox="0 0 875 319" fill="none" xmlns="http://www.w3.org/2000/svg">
<path d="M4.17694 318.202C3.39294 318.202 2.7116 318.001 2.13294 317.6C1.55427 317.189 1.1016 316.611 0.774938 315.864C0.457604 315.117 0.298938 314.226 0.298938 313.19C0.298938 312.154 0.457604 311.263 0.774938 310.516C1.1016 309.76 1.55427 309.181 2.13294 308.78C2.7116 308.379 3.39294 308.178 4.17694 308.178C4.97027 308.178 5.65627 308.379 6.23494 308.78C6.8136 309.181 7.2616 309.76 7.57894 310.516C7.9056 311.263 8.06894 312.154 8.06894 313.19C8.06894 314.226 7.9056 315.117 7.57894 315.864C7.2616 316.611 6.8136 317.189 6.23494 317.6C5.65627 318.001 4.97027 318.202 4.17694 318.202ZM4.17694 316.788C4.8956 316.788 5.44627 316.48 5.82894 315.864C6.22094 315.239 6.41694 314.347 6.41694 313.19C6.41694 312.023 6.22094 311.132 5.82894 310.516C5.44627 309.9 4.8956 309.592 4.17694 309.592C3.4676 309.592 2.91694 309.9 2.52494 310.516C2.14227 311.132 1.95094 312.023 1.95094 313.19C1.95094 314.347 2.14227 315.239 2.52494 315.864C2.91694 316.48 3.4676 316.788 4.17694 316.788Z" fill="#272724"/>
<path d="M173.466 317.202C172.682 317.202 172.001 317.001 171.422 316.6C170.843 316.189 170.391 315.611 170.064 314.864C169.747 314.117 169.588 313.226 169.588 312.19C169.588 311.154 169.747 310.263 170.064 309.516C170.391 308.76 170.843 308.181 171.422 307.78C172.001 307.379 172.682 307.178 173.466 307.178C174.259 307.178 174.945 307.379 175.524 307.78C176.103 308.181 176.551 308.76 176.868 309.516C177.195 310.263 177.358 311.154 177.358 312.19C177.358 313.226 177.195 314.117 176.868 314.864C176.551 315.611 176.103 316.189 175.524 316.6C174.945 317.001 174.259 317.202 173.466 317.202ZM173.466 315.788C174.185 315.788 174.735 315.48 175.118 314.864C175.51 314.239 175.706 313.347 175.706 312.19C175.706 311.023 175.51 310.132 175.118 309.516C174.735 308.9 174.185 308.592 173.466 308.592C172.757 308.592 172.206 308.9 171.814 309.516C171.431 310.132 171.24 311.023 171.24 312.19C171.24 313.347 171.431 314.239 171.814 314.864C172.206 315.48 172.757 315.788 173.466 315.788ZM180.433 317.09V309.138C180.191 309.399 179.873 309.623 179.481 309.81C179.089 309.997 178.66 310.151 178.193 310.272L178.025 308.844C178.464 308.751 178.926 308.569 179.411 308.298C179.897 308.018 180.326 307.682 180.699 307.29H182.085V317.09H180.433Z" fill="#272724"/>
<path d="M345.466 317.202C344.682 317.202 344.001 317.001 343.422 316.6C342.843 316.189 342.391 315.611 342.064 314.864C341.747 314.117 341.588 313.226 341.588 312.19C341.588 311.154 341.747 310.263 342.064 309.516C342.391 308.76 342.843 308.181 343.422 307.78C344.001 307.379 344.682 307.178 345.466 307.178C346.259 307.178 346.945 307.379 347.524 307.78C348.103 308.181 348.551 308.76 348.868 309.516C349.195 310.263 349.358 311.154 349.358 312.19C349.358 313.226 349.195 314.117 348.868 314.864C348.551 315.611 348.103 316.189 347.524 316.6C346.945 317.001 346.259 317.202 345.466 317.202ZM345.466 315.788C346.185 315.788 346.735 315.48 347.118 314.864C347.51 314.239 347.706 313.347 347.706 312.19C347.706 311.023 347.51 310.132 347.118 309.516C346.735 308.9 346.185 308.592 345.466 308.592C344.757 308.592 344.206 308.9 343.814 309.516C343.431 310.132 343.24 311.023 343.24 312.19C343.24 313.347 343.431 314.239 343.814 314.864C344.206 315.48 344.757 315.788 345.466 315.788ZM350.319 317.09V315.802L353.959 312.624C354.482 312.157 354.874 311.737 355.135 311.364C355.397 310.981 355.527 310.589 355.527 310.188C355.527 309.684 355.369 309.292 355.051 309.012C354.743 308.732 354.342 308.592 353.847 308.592C353.25 308.592 352.779 308.797 352.433 309.208C352.088 309.619 351.939 310.165 351.985 310.846L350.361 310.762C350.296 310.071 350.403 309.455 350.683 308.914C350.963 308.373 351.374 307.948 351.915 307.64C352.466 307.332 353.105 307.178 353.833 307.178C354.851 307.178 355.663 307.444 356.269 307.976C356.876 308.499 357.179 309.231 357.179 310.174C357.179 310.799 356.988 311.401 356.605 311.98C356.223 312.559 355.649 313.142 354.883 313.73L352.671 315.676H357.207V317.09H350.319Z" fill="#272724"/>
<path d="M518.466 317.202C517.682 317.202 517.001 317.001 516.422 316.6C515.843 316.189 515.391 315.611 515.064 314.864C514.747 314.117 514.588 313.226 514.588 312.19C514.588 311.154 514.747 310.263 515.064 309.516C515.391 308.76 515.843 308.181 516.422 307.78C517.001 307.379 517.682 307.178 518.466 307.178C519.259 307.178 519.945 307.379 520.524 307.78C521.103 308.181 521.551 308.76 521.868 309.516C522.195 310.263 522.358 311.154 522.358 312.19C522.358 313.226 522.195 314.117 521.868 314.864C521.551 315.611 521.103 316.189 520.524 316.6C519.945 317.001 519.259 317.202 518.466 317.202ZM518.466 315.788C519.185 315.788 519.735 315.48 520.118 314.864C520.51 314.239 520.706 313.347 520.706 312.19C520.706 311.023 520.51 310.132 520.118 309.516C519.735 308.9 519.185 308.592 518.466 308.592C517.757 308.592 517.206 308.9 516.814 309.516C516.431 310.132 516.24 311.023 516.24 312.19C516.24 313.347 516.431 314.239 516.814 314.864C517.206 315.48 517.757 315.788 518.466 315.788ZM526.735 317.202C526.082 317.202 525.494 317.085 524.971 316.852C524.458 316.609 524.043 316.273 523.725 315.844C523.408 315.415 523.217 314.915 523.151 314.346L524.621 314.108C524.696 314.621 524.925 315.032 525.307 315.34C525.69 315.639 526.166 315.788 526.735 315.788C527.323 315.788 527.804 315.615 528.177 315.27C528.56 314.915 528.751 314.467 528.751 313.926C528.751 313.385 528.579 312.951 528.233 312.624C527.897 312.297 527.468 312.134 526.945 312.134C526.423 312.134 525.993 312.251 525.657 312.484L525.041 311.406L527.869 308.704H523.431V307.29H529.801V308.592L527.099 311.07C527.183 311.061 527.263 311.056 527.337 311.056C528.289 311.056 529.031 311.322 529.563 311.854C530.105 312.386 530.375 313.095 530.375 313.982C530.375 314.607 530.221 315.163 529.913 315.648C529.605 316.133 529.176 316.516 528.625 316.796C528.084 317.067 527.454 317.202 526.735 317.202Z" fill="#272724"/>
<path d="M690.466 317.202C689.682 317.202 689.001 317.001 688.422 316.6C687.843 316.189 687.391 315.611 687.064 314.864C686.747 314.117 686.588 313.226 686.588 312.19C686.588 311.154 686.747 310.263 687.064 309.516C687.391 308.76 687.843 308.181 688.422 307.78C689.001 307.379 689.682 307.178 690.466 307.178C691.259 307.178 691.945 307.379 692.524 307.78C693.103 308.181 693.551 308.76 693.868 309.516C694.195 310.263 694.358 311.154 694.358 312.19C694.358 313.226 694.195 314.117 693.868 314.864C693.551 315.611 693.103 316.189 692.524 316.6C691.945 317.001 691.259 317.202 690.466 317.202ZM690.466 315.788C691.185 315.788 691.735 315.48 692.118 314.864C692.51 314.239 692.706 313.347 692.706 312.19C692.706 311.023 692.51 310.132 692.118 309.516C691.735 308.9 691.185 308.592 690.466 308.592C689.757 308.592 689.206 308.9 688.814 309.516C688.431 310.132 688.24 311.023 688.24 312.19C688.24 313.347 688.431 314.239 688.814 314.864C689.206 315.48 689.757 315.788 690.466 315.788ZM700.205 317.09V314.878H695.179V313.59L700.051 307.29H701.857V313.464H703.159V314.878H701.857V317.09H700.205ZM696.873 313.464H700.205V309.236L696.873 313.464Z" fill="#272724"/>
<path d="M862.466 317.202C861.682 317.202 861.001 317.001 860.422 316.6C859.843 316.189 859.391 315.611 859.064 314.864C858.747 314.117 858.588 313.226 858.588 312.19C858.588 311.154 858.747 310.263 859.064 309.516C859.391 308.76 859.843 308.181 860.422 307.78C861.001 307.379 861.682 307.178 862.466 307.178C863.259 307.178 863.945 307.379 864.524 307.78C865.103 308.181 865.551 308.76 865.868 309.516C866.195 310.263 866.358 311.154 866.358 312.19C866.358 313.226 866.195 314.117 865.868 314.864C865.551 315.611 865.103 316.189 864.524 316.6C863.945 317.001 863.259 317.202 862.466 317.202ZM862.466 315.788C863.185 315.788 863.735 315.48 864.118 314.864C864.51 314.239 864.706 313.347 864.706 312.19C864.706 311.023 864.51 310.132 864.118 309.516C863.735 308.9 863.185 308.592 862.466 308.592C861.757 308.592 861.206 308.9 860.814 309.516C860.431 310.132 860.24 311.023 860.24 312.19C860.24 313.347 860.431 314.239 860.814 314.864C861.206 315.48 861.757 315.788 862.466 315.788ZM870.819 317.202C870.175 317.202 869.597 317.09 869.083 316.866C868.57 316.633 868.15 316.315 867.823 315.914C867.506 315.503 867.31 315.027 867.235 314.486L868.775 314.22C868.841 314.705 869.055 315.088 869.419 315.368C869.793 315.648 870.241 315.788 870.763 315.788C871.333 315.788 871.799 315.606 872.163 315.242C872.527 314.869 872.709 314.397 872.709 313.828C872.709 313.24 872.527 312.759 872.163 312.386C871.799 312.013 871.333 311.826 870.763 311.826C870.306 311.826 869.909 311.929 869.573 312.134C869.237 312.339 868.99 312.601 868.831 312.918L867.473 312.694L868.271 307.29H873.619V308.704H869.503L869.069 311.378C869.312 311.135 869.615 310.939 869.979 310.79C870.343 310.641 870.759 310.566 871.225 310.566C871.832 310.566 872.369 310.701 872.835 310.972C873.302 311.243 873.671 311.625 873.941 312.12C874.212 312.605 874.347 313.175 874.347 313.828C874.347 314.491 874.198 315.079 873.899 315.592C873.601 316.096 873.185 316.493 872.653 316.782C872.131 317.062 871.519 317.202 870.819 317.202Z" fill="#272724"/>
<path d="M4.232 57.8398V46.6398H8.584C9.29867 46.6398 9.91733 46.7732 10.44 47.0398C10.9733 47.3065 11.384 47.6852 11.672 48.1758C11.9707 48.6558 12.12 49.2212 12.12 49.8718C12.12 50.5225 11.9707 51.0932 11.672 51.5838C11.384 52.0638 10.9733 52.4372 10.44 52.7038C9.91733 52.9705 9.29867 53.1038 8.584 53.1038H5.688V57.8398H4.232ZM5.688 51.8398H8.44C8.888 51.8398 9.27733 51.7598 9.608 51.5998C9.94933 51.4398 10.2107 51.2105 10.392 50.9118C10.5733 50.6132 10.664 50.2665 10.664 49.8718C10.664 49.2745 10.4613 48.7998 10.056 48.4478C9.66133 48.0852 9.12267 47.9038 8.44 47.9038H5.688V51.8398ZM14.0364 57.8398V46.6398H21.2364V47.9038H15.5084V51.3278H20.2124V52.5918H15.5084V56.5758H21.2684V57.8398H14.0364ZM23.372 57.8398V46.6398H30.572V47.9038H24.844V51.3278H29.548V52.5918H24.844V56.5758H30.604V57.8398H23.372ZM32.7076 57.8398V46.6398H36.8676C37.529 46.6398 38.1156 46.7732 38.6276 47.0398C39.1396 47.2958 39.5396 47.6585 39.8276 48.1278C40.1156 48.5865 40.2596 49.1198 40.2596 49.7278C40.2596 50.1652 40.1743 50.5705 40.0036 50.9438C39.8436 51.3172 39.609 51.6478 39.2996 51.9358C39.001 52.2132 38.6436 52.4318 38.2276 52.5918C37.8223 52.7412 37.369 52.8158 36.8676 52.8158H34.1796V57.8398H32.7076ZM39.5876 57.8398L36.3076 52.4798L37.8276 52.3198L41.2996 57.8398H39.5876ZM34.1796 51.5518H36.6436C37.0703 51.5518 37.4436 51.4772 37.7636 51.3278C38.0943 51.1678 38.345 50.9545 38.5156 50.6878C38.697 50.4105 38.7876 50.0905 38.7876 49.7278C38.7876 49.3652 38.697 49.0505 38.5156 48.7838C38.345 48.5065 38.0943 48.2932 37.7636 48.1438C37.4436 47.9838 37.0703 47.9038 36.6436 47.9038H34.1796V51.5518Z" fill="black"/>
<rect opacity="0.5" x="4" y="82.2617" width="118.95" height="45.97" rx="3" stroke="#E5732E" stroke-width="2"/>
<path d="M4.232 195.199V183.999H8.392C9.05333 183.999 9.64 184.133 10.152 184.399C10.664 184.655 11.064 185.018 11.352 185.487C11.64 185.946 11.784 186.479 11.784 187.087C11.784 187.525 11.6987 187.93 11.528 188.303C11.368 188.677 11.1333 189.007 10.824 189.295C10.5253 189.573 10.168 189.791 9.752 189.951C9.34667 190.101 8.89333 190.175 8.392 190.175H5.704V195.199H4.232ZM11.112 195.199L7.832 189.839L9.352 189.679L12.824 195.199H11.112ZM5.704 188.911H8.168C8.59467 188.911 8.968 188.837 9.288 188.687C9.61867 188.527 9.86933 188.314 10.04 188.047C10.2213 187.77 10.312 187.45 10.312 187.087C10.312 186.725 10.2213 186.41 10.04 186.143C9.86933 185.866 9.61867 185.653 9.288 185.503C8.968 185.343 8.59467 185.263 8.168 185.263H5.704V188.911ZM19.1054 195.327C18.3054 195.327 17.564 195.189 16.8814 194.911C16.2094 194.623 15.628 194.223 15.1374 193.711C14.6467 193.199 14.2627 192.597 13.9854 191.903C13.708 191.199 13.5694 190.431 13.5694 189.599C13.5694 188.767 13.708 188.005 13.9854 187.311C14.2627 186.607 14.6467 185.999 15.1374 185.487C15.628 184.975 16.2094 184.581 16.8814 184.303C17.564 184.015 18.3054 183.871 19.1054 183.871C19.8947 183.871 20.6254 184.015 21.2974 184.303C21.9694 184.581 22.556 184.975 23.0574 185.487C23.5587 185.999 23.9427 186.607 24.2094 187.311C24.4867 188.005 24.6254 188.767 24.6254 189.599C24.6254 190.431 24.4867 191.199 24.2094 191.903C23.9427 192.597 23.5587 193.199 23.0574 193.711C22.556 194.223 21.9694 194.623 21.2974 194.911C20.6254 195.189 19.8947 195.327 19.1054 195.327ZM19.1054 194.063C19.692 194.063 20.2307 193.951 20.7214 193.727C21.2227 193.503 21.6547 193.194 22.0174 192.799C22.38 192.394 22.6627 191.925 22.8654 191.391C23.068 190.847 23.1694 190.25 23.1694 189.599C23.1694 188.735 22.9934 187.967 22.6414 187.295C22.2894 186.623 21.8094 186.095 21.2014 185.711C20.5934 185.327 19.8947 185.135 19.1054 185.135C18.508 185.135 17.964 185.247 17.4734 185.471C16.9827 185.695 16.556 186.005 16.1934 186.399C15.8307 186.794 15.548 187.263 15.3454 187.807C15.1427 188.351 15.0414 188.949 15.0414 189.599C15.0414 190.463 15.2174 191.231 15.5694 191.903C15.9214 192.575 16.4014 193.103 17.0094 193.487C17.6174 193.871 18.316 194.063 19.1054 194.063ZM31.7847 195.327C30.9847 195.327 30.2434 195.189 29.5607 194.911C28.8887 194.623 28.3074 194.223 27.8167 193.711C27.3261 193.199 26.9421 192.597 26.6647 191.903C26.3874 191.199 26.2487 190.431 26.2487 189.599C26.2487 188.767 26.3874 188.005 26.6647 187.311C26.9421 186.607 27.3261 185.999 27.8167 185.487C28.3074 184.975 28.8887 184.581 29.5607 184.303C30.2434 184.015 30.9847 183.871 31.7847 183.871C32.5741 183.871 33.3047 184.015 33.9767 184.303C34.6487 184.581 35.2354 184.975 35.7367 185.487C36.2381 185.999 36.6221 186.607 36.8888 187.311C37.1661 188.005 37.3047 188.767 37.3047 189.599C37.3047 190.431 37.1661 191.199 36.8888 191.903C36.6221 192.597 36.2381 193.199 35.7367 193.711C35.2354 194.223 34.6487 194.623 33.9767 194.911C33.3047 195.189 32.5741 195.327 31.7847 195.327ZM31.7847 194.063C32.3714 194.063 32.9101 193.951 33.4007 193.727C33.9021 193.503 34.3341 193.194 34.6967 192.799C35.0594 192.394 35.3421 191.925 35.5448 191.391C35.7474 190.847 35.8488 190.25 35.8488 189.599C35.8488 188.735 35.6728 187.967 35.3208 187.295C34.9687 186.623 34.4887 186.095 33.8807 185.711C33.2727 185.327 32.5741 185.135 31.7847 185.135C31.1874 185.135 30.6434 185.247 30.1527 185.471C29.6621 185.695 29.2354 186.005 28.8727 186.399C28.5101 186.794 28.2274 187.263 28.0247 187.807C27.8221 188.351 27.7207 188.949 27.7207 189.599C27.7207 190.463 27.8967 191.231 28.2487 191.903C28.6007 192.575 29.0807 193.103 29.6887 193.487C30.2967 193.871 30.9954 194.063 31.7847 194.063ZM41.3301 195.199V185.103H42.8021V195.199H41.3301ZM37.7941 185.263V183.999H46.3541V185.263H37.7941ZM48.1526 195.199V183.999H49.6246V193.935H55.2726V195.199H48.1526ZM55.9612 195.199L60.4252 183.999H62.1052L66.5532 195.199H64.9852L63.8332 192.319H58.6332L57.4812 195.199H55.9612ZM59.1132 191.055H63.3692L61.2412 185.679L59.1132 191.055ZM68.1832 195.199V183.999H72.5192C73.1486 183.999 73.6979 184.117 74.1672 184.351C74.6472 184.575 75.0206 184.895 75.2872 185.311C75.5646 185.727 75.7032 186.207 75.7032 186.751C75.7032 187.146 75.6179 187.509 75.4472 187.839C75.2766 188.17 75.0579 188.453 74.7912 188.687C74.5352 188.911 74.2579 189.071 73.9592 189.167C74.3646 189.242 74.7379 189.413 75.0792 189.679C75.4206 189.946 75.6926 190.277 75.8952 190.671C76.1086 191.066 76.2152 191.498 76.2152 191.967C76.2152 192.607 76.0552 193.173 75.7352 193.663C75.4259 194.143 74.9939 194.522 74.4392 194.799C73.8846 195.066 73.2499 195.199 72.5352 195.199H68.1832ZM69.6552 193.935H72.4232C72.8712 193.935 73.2712 193.85 73.6232 193.679C73.9752 193.498 74.2526 193.258 74.4552 192.959C74.6579 192.65 74.7592 192.298 74.7592 191.903C74.7592 191.509 74.6579 191.157 74.4552 190.847C74.2526 190.538 73.9752 190.298 73.6232 190.127C73.2712 189.957 72.8712 189.871 72.4232 189.871H69.6552V193.935ZM69.6552 188.623H72.3272C72.7006 188.623 73.0312 188.554 73.3192 188.415C73.6179 188.266 73.8526 188.069 74.0232 187.823C74.1939 187.567 74.2792 187.274 74.2792 186.943C74.2792 186.602 74.1939 186.309 74.0232 186.063C73.8526 185.818 73.6179 185.626 73.3192 185.487C73.0312 185.338 72.7006 185.263 72.3272 185.263H69.6552V188.623ZM82.1062 195.327C81.3489 195.327 80.6556 195.194 80.0262 194.927C79.4076 194.661 78.8849 194.271 78.4582 193.759C78.0422 193.247 77.7542 192.618 77.5942 191.871L78.9222 191.487C79.0929 192.319 79.4662 192.959 80.0422 193.407C80.6182 193.845 81.3062 194.063 82.1062 194.063C82.5542 194.063 82.9596 193.994 83.3222 193.855C83.6849 193.717 83.9729 193.509 84.1862 193.231C84.4102 192.943 84.5222 192.575 84.5222 192.127C84.5222 191.711 84.4049 191.375 84.1702 191.119C83.9356 190.863 83.6262 190.661 83.2422 190.511C82.8689 190.351 82.4529 190.213 81.9942 190.095C81.5462 189.967 81.0929 189.834 80.6342 189.695C80.1756 189.546 79.7542 189.359 79.3702 189.135C78.9969 188.901 78.6929 188.607 78.4582 188.255C78.2236 187.893 78.1062 187.429 78.1062 186.863C78.1062 186.245 78.2716 185.717 78.6022 185.279C78.9436 184.831 79.3916 184.485 79.9462 184.239C80.5116 183.994 81.1356 183.871 81.8182 183.871C82.5009 183.871 83.1142 183.983 83.6582 184.207C84.2129 184.421 84.6716 184.735 85.0342 185.151C85.4076 185.567 85.6636 186.063 85.8022 186.639L84.5062 187.103C84.3249 186.453 83.9996 185.962 83.5302 185.631C83.0609 185.301 82.4849 185.135 81.8022 185.135C81.3542 185.135 80.9596 185.205 80.6182 185.343C80.2876 185.482 80.0316 185.679 79.8502 185.935C79.6689 186.181 79.5782 186.469 79.5782 186.799C79.5782 187.173 79.6902 187.471 79.9142 187.695C80.1489 187.919 80.4582 188.101 80.8422 188.239C81.2262 188.378 81.6422 188.506 82.0902 188.623C82.5489 188.73 83.0076 188.858 83.4662 189.007C83.9249 189.157 84.3409 189.354 84.7142 189.599C85.0982 189.834 85.4022 190.149 85.6262 190.543C85.8609 190.927 85.9782 191.423 85.9782 192.031C85.9782 192.767 85.8022 193.381 85.4502 193.871C85.1089 194.362 84.6449 194.73 84.0582 194.975C83.4716 195.21 82.8209 195.327 82.1062 195.327Z" fill="#272724"/>
<rect x="3" y="218.617" width="812.19" height="47.97" rx="4" fill="#E5732E"/>
</svg>
